<?xml version="1.0" encoding="utf-8" standalone="no"?>
<!DOCTYPE svg PUBLIC "-//W3C//DTD SVG 1.1//EN"
  "http://www.w3.org/Graphics/SVG/1.1/DTD/svg11.dtd">
<!-- Created with matplotlib (https://matplotlib.org/) -->
<svg height="504pt" version="1.1" viewBox="0 0 720 504" width="720pt" xmlns="http://www.w3.org/2000/svg" xmlns:xlink="http://www.w3.org/1999/xlink">
 <defs>
  <style type="text/css">
*{stroke-linecap:butt;stroke-linejoin:round;}
  </style>
 </defs>
 <g id="figure_1">
  <g id="patch_1">
   <path d="M 0 504 
L 720 504 
L 720 0 
L 0 0 
z
" style="fill:#ffffff;"/>
  </g>
  <g id="axes_1">
   <g id="patch_2">
    <path d="M 90 441 
L 648 441 
L 648 60.48 
L 90 60.48 
z
" style="fill:#ffffff;"/>
   </g>
   <g id="matplotlib.axis_1">
    <g id="xtick_1">
     <g id="line2d_1">
      <defs>
       <path d="M 0 0 
L 0 3.5 
" id="m3a119f2af9" style="stroke:#000000;stroke-width:0.8;"/>
      </defs>
      <g>
       <use style="stroke:#000000;stroke-width:0.8;" x="115.363636" xlink:href="#m3a119f2af9" y="441"/>
      </g>
     </g>
     <g id="text_1">
      <!-- 0 -->
      <defs>
       <path d="M 31.78125 66.40625 
Q 24.171875 66.40625 20.328125 58.90625 
Q 16.5 51.421875 16.5 36.375 
Q 16.5 21.390625 20.328125 13.890625 
Q 24.171875 6.390625 31.78125 6.390625 
Q 39.453125 6.390625 43.28125 13.890625 
Q 47.125 21.390625 47.125 36.375 
Q 47.125 51.421875 43.28125 58.90625 
Q 39.453125 66.40625 31.78125 66.40625 
z
M 31.78125 74.21875 
Q 44.046875 74.21875 50.515625 64.515625 
Q 56.984375 54.828125 56.984375 36.375 
Q 56.984375 17.96875 50.515625 8.265625 
Q 44.046875 -1.421875 31.78125 -1.421875 
Q 19.53125 -1.421875 13.0625 8.265625 
Q 6.59375 17.96875 6.59375 36.375 
Q 6.59375 54.828125 13.0625 64.515625 
Q 19.53125 74.21875 31.78125 74.21875 
z
" id="DejaVuSans-48"/>
      </defs>
      <g transform="translate(107.410511 466.996094)scale(0.25 -0.25)">
       <use xlink:href="#DejaVuSans-48"/>
      </g>
     </g>
    </g>
    <g id="xtick_2">
     <g id="line2d_2">
      <g>
       <use style="stroke:#000000;stroke-width:0.8;" x="205.305609" xlink:href="#m3a119f2af9" y="441"/>
      </g>
     </g>
     <g id="text_2">
      <!-- 100 -->
      <defs>
       <path d="M 12.40625 8.296875 
L 28.515625 8.296875 
L 28.515625 63.921875 
L 10.984375 60.40625 
L 10.984375 69.390625 
L 28.421875 72.90625 
L 38.28125 72.90625 
L 38.28125 8.296875 
L 54.390625 8.296875 
L 54.390625 0 
L 12.40625 0 
z
" id="DejaVuSans-49"/>
      </defs>
      <g transform="translate(181.446234 466.996094)scale(0.25 -0.25)">
       <use xlink:href="#DejaVuSans-49"/>
       <use x="63.623047" xlink:href="#DejaVuSans-48"/>
       <use x="127.246094" xlink:href="#DejaVuSans-48"/>
      </g>
     </g>
    </g>
    <g id="xtick_3">
     <g id="line2d_3">
      <g>
       <use style="stroke:#000000;stroke-width:0.8;" x="295.247582" xlink:href="#m3a119f2af9" y="441"/>
      </g>
     </g>
     <g id="text_3">
      <!-- 200 -->
      <defs>
       <path d="M 19.1875 8.296875 
L 53.609375 8.296875 
L 53.609375 0 
L 7.328125 0 
L 7.328125 8.296875 
Q 12.9375 14.109375 22.625 23.890625 
Q 32.328125 33.6875 34.8125 36.53125 
Q 39.546875 41.84375 41.421875 45.53125 
Q 43.3125 49.21875 43.3125 52.78125 
Q 43.3125 58.59375 39.234375 62.25 
Q 35.15625 65.921875 28.609375 65.921875 
Q 23.96875 65.921875 18.8125 64.3125 
Q 13.671875 62.703125 7.8125 59.421875 
L 7.8125 69.390625 
Q 13.765625 71.78125 18.9375 73 
Q 24.125 74.21875 28.421875 74.21875 
Q 39.75 74.21875 46.484375 68.546875 
Q 53.21875 62.890625 53.21875 53.421875 
Q 53.21875 48.921875 51.53125 44.890625 
Q 49.859375 40.875 45.40625 35.40625 
Q 44.1875 33.984375 37.640625 27.21875 
Q 31.109375 20.453125 19.1875 8.296875 
z
" id="DejaVuSans-50"/>
      </defs>
      <g transform="translate(271.388207 466.996094)scale(0.25 -0.25)">
       <use xlink:href="#DejaVuSans-50"/>
       <use x="63.623047" xlink:href="#DejaVuSans-48"/>
       <use x="127.246094" xlink:href="#DejaVuSans-48"/>
      </g>
     </g>
    </g>
    <g id="xtick_4">
     <g id="line2d_4">
      <g>
       <use style="stroke:#000000;stroke-width:0.8;" x="385.189555" xlink:href="#m3a119f2af9" y="441"/>
      </g>
     </g>
     <g id="text_4">
      <!-- 300 -->
      <defs>
       <path d="M 40.578125 39.3125 
Q 47.65625 37.796875 51.625 33 
Q 55.609375 28.21875 55.609375 21.1875 
Q 55.609375 10.40625 48.1875 4.484375 
Q 40.765625 -1.421875 27.09375 -1.421875 
Q 22.515625 -1.421875 17.65625 -0.515625 
Q 12.796875 0.390625 7.625 2.203125 
L 7.625 11.71875 
Q 11.71875 9.328125 16.59375 8.109375 
Q 21.484375 6.890625 26.8125 6.890625 
Q 36.078125 6.890625 40.9375 10.546875 
Q 45.796875 14.203125 45.796875 21.1875 
Q 45.796875 27.640625 41.28125 31.265625 
Q 36.765625 34.90625 28.71875 34.90625 
L 20.21875 34.90625 
L 20.21875 43.015625 
L 29.109375 43.015625 
Q 36.375 43.015625 40.234375 45.921875 
Q 44.09375 48.828125 44.09375 54.296875 
Q 44.09375 59.90625 40.109375 62.90625 
Q 36.140625 65.921875 28.71875 65.921875 
Q 24.65625 65.921875 20.015625 65.03125 
Q 15.375 64.15625 9.8125 62.3125 
L 9.8125 71.09375 
Q 15.4375 72.65625 20.34375 73.4375 
Q 25.25 74.21875 29.59375 74.21875 
Q 40.828125 74.21875 47.359375 69.109375 
Q 53.90625 64.015625 53.90625 55.328125 
Q 53.90625 49.265625 50.4375 45.09375 
Q 46.96875 40.921875 40.578125 39.3125 
z
" id="DejaVuSans-51"/>
      </defs>
      <g transform="translate(361.33018 466.996094)scale(0.25 -0.25)">
       <use xlink:href="#DejaVuSans-51"/>
       <use x="63.623047" xlink:href="#DejaVuSans-48"/>
       <use x="127.246094" xlink:href="#DejaVuSans-48"/>
      </g>
     </g>
    </g>
    <g id="xtick_5">
     <g id="line2d_5">
      <g>
       <use style="stroke:#000000;stroke-width:0.8;" x="475.131528" xlink:href="#m3a119f2af9" y="441"/>
      </g>
     </g>
     <g id="text_5">
      <!-- 400 -->
      <defs>
       <path d="M 37.796875 64.3125 
L 12.890625 25.390625 
L 37.796875 25.390625 
z
M 35.203125 72.90625 
L 47.609375 72.90625 
L 47.609375 25.390625 
L 58.015625 25.390625 
L 58.015625 17.1875 
L 47.609375 17.1875 
L 47.609375 0 
L 37.796875 0 
L 37.796875 17.1875 
L 4.890625 17.1875 
L 4.890625 26.703125 
z
" id="DejaVuSans-52"/>
      </defs>
      <g transform="translate(451.272153 466.996094)scale(0.25 -0.25)">
       <use xlink:href="#DejaVuSans-52"/>
       <use x="63.623047" xlink:href="#DejaVuSans-48"/>
       <use x="127.246094" xlink:href="#DejaVuSans-48"/>
      </g>
     </g>
    </g>
    <g id="xtick_6">
     <g id="line2d_6">
      <g>
       <use style="stroke:#000000;stroke-width:0.8;" x="565.073501" xlink:href="#m3a119f2af9" y="441"/>
      </g>
     </g>
     <g id="text_6">
      <!-- 500 -->
      <defs>
       <path d="M 10.796875 72.90625 
L 49.515625 72.90625 
L 49.515625 64.59375 
L 19.828125 64.59375 
L 19.828125 46.734375 
Q 21.96875 47.46875 24.109375 47.828125 
Q 26.265625 48.1875 28.421875 48.1875 
Q 40.625 48.1875 47.75 41.5 
Q 54.890625 34.8125 54.890625 23.390625 
Q 54.890625 11.625 47.5625 5.09375 
Q 40.234375 -1.421875 26.90625 -1.421875 
Q 22.3125 -1.421875 17.546875 -0.640625 
Q 12.796875 0.140625 7.71875 1.703125 
L 7.71875 11.625 
Q 12.109375 9.234375 16.796875 8.0625 
Q 21.484375 6.890625 26.703125 6.890625 
Q 35.15625 6.890625 40.078125 11.328125 
Q 45.015625 15.765625 45.015625 23.390625 
Q 45.015625 31 40.078125 35.4375 
Q 35.15625 39.890625 26.703125 39.890625 
Q 22.75 39.890625 18.8125 39.015625 
Q 14.890625 38.140625 10.796875 36.28125 
z
" id="DejaVuSans-53"/>
      </defs>
      <g transform="translate(541.214126 466.996094)scale(0.25 -0.25)">
       <use xlink:href="#DejaVuSans-53"/>
       <use x="63.623047" xlink:href="#DejaVuSans-48"/>
       <use x="127.246094" xlink:href="#DejaVuSans-48"/>
      </g>
     </g>
    </g>
    <g id="text_7">
     <!-- Tip of tail fiber sequence (bp) -->
     <defs>
      <path d="M 0.484375 72.90625 
L 67.671875 72.90625 
L 67.671875 58.6875 
L 43.5 58.6875 
L 43.5 0 
L 24.703125 0 
L 24.703125 58.6875 
L 0.484375 58.6875 
z
" id="DejaVuSans-Bold-84"/>
      <path d="M 8.40625 54.6875 
L 25.875 54.6875 
L 25.875 0 
L 8.40625 0 
z
M 8.40625 75.984375 
L 25.875 75.984375 
L 25.875 61.71875 
L 8.40625 61.71875 
z
" id="DejaVuSans-Bold-105"/>
      <path d="M 25.875 7.90625 
L 25.875 -20.796875 
L 8.40625 -20.796875 
L 8.40625 54.6875 
L 25.875 54.6875 
L 25.875 46.6875 
Q 29.5 51.46875 33.890625 53.734375 
Q 38.28125 56 44 56 
Q 54.109375 56 60.59375 47.96875 
Q 67.09375 39.9375 67.09375 27.296875 
Q 67.09375 14.65625 60.59375 6.609375 
Q 54.109375 -1.421875 44 -1.421875 
Q 38.28125 -1.421875 33.890625 0.84375 
Q 29.5 3.125 25.875 7.90625 
z
M 37.5 43.3125 
Q 31.890625 43.3125 28.875 39.1875 
Q 25.875 35.0625 25.875 27.296875 
Q 25.875 19.53125 28.875 15.40625 
Q 31.890625 11.28125 37.5 11.28125 
Q 43.109375 11.28125 46.0625 15.375 
Q 49.03125 19.484375 49.03125 27.296875 
Q 49.03125 35.109375 46.0625 39.203125 
Q 43.109375 43.3125 37.5 43.3125 
z
" id="DejaVuSans-Bold-112"/>
      <path id="DejaVuSans-Bold-32"/>
      <path d="M 34.421875 43.5 
Q 28.609375 43.5 25.5625 39.328125 
Q 22.515625 35.15625 22.515625 27.296875 
Q 22.515625 19.4375 25.5625 15.25 
Q 28.609375 11.078125 34.421875 11.078125 
Q 40.140625 11.078125 43.15625 15.25 
Q 46.1875 19.4375 46.1875 27.296875 
Q 46.1875 35.15625 43.15625 39.328125 
Q 40.140625 43.5 34.421875 43.5 
z
M 34.421875 56 
Q 48.53125 56 56.46875 48.375 
Q 64.40625 40.765625 64.40625 27.296875 
Q 64.40625 13.8125 56.46875 6.1875 
Q 48.53125 -1.421875 34.421875 -1.421875 
Q 20.265625 -1.421875 12.28125 6.1875 
Q 4.296875 13.8125 4.296875 27.296875 
Q 4.296875 40.765625 12.28125 48.375 
Q 20.265625 56 34.421875 56 
z
" id="DejaVuSans-Bold-111"/>
      <path d="M 44.390625 75.984375 
L 44.390625 64.5 
L 34.71875 64.5 
Q 31 64.5 29.53125 63.15625 
Q 28.078125 61.8125 28.078125 58.5 
L 28.078125 54.6875 
L 43.015625 54.6875 
L 43.015625 42.1875 
L 28.078125 42.1875 
L 28.078125 0 
L 10.59375 0 
L 10.59375 42.1875 
L 1.90625 42.1875 
L 1.90625 54.6875 
L 10.59375 54.6875 
L 10.59375 58.5 
Q 10.59375 67.4375 15.578125 71.703125 
Q 20.5625 75.984375 31 75.984375 
z
" id="DejaVuSans-Bold-102"/>
      <path d="M 27.484375 70.21875 
L 27.484375 54.6875 
L 45.515625 54.6875 
L 45.515625 42.1875 
L 27.484375 42.1875 
L 27.484375 19 
Q 27.484375 15.1875 29 13.84375 
Q 30.515625 12.5 35.015625 12.5 
L 44 12.5 
L 44 0 
L 29 0 
Q 18.65625 0 14.328125 4.3125 
Q 10.015625 8.640625 10.015625 19 
L 10.015625 42.1875 
L 1.3125 42.1875 
L 1.3125 54.6875 
L 10.015625 54.6875 
L 10.015625 70.21875 
z
" id="DejaVuSans-Bold-116"/>
      <path d="M 32.90625 24.609375 
Q 27.4375 24.609375 24.671875 22.75 
Q 21.921875 20.90625 21.921875 17.28125 
Q 21.921875 13.96875 24.140625 12.078125 
Q 26.375 10.203125 30.328125 10.203125 
Q 35.25 10.203125 38.625 13.734375 
Q 42 17.28125 42 22.609375 
L 42 24.609375 
z
M 59.625 31.203125 
L 59.625 0 
L 42 0 
L 42 8.109375 
Q 38.484375 3.125 34.078125 0.84375 
Q 29.6875 -1.421875 23.390625 -1.421875 
Q 14.890625 -1.421875 9.59375 3.53125 
Q 4.296875 8.5 4.296875 16.40625 
Q 4.296875 26.03125 10.90625 30.515625 
Q 17.53125 35.015625 31.6875 35.015625 
L 42 35.015625 
L 42 36.375 
Q 42 40.53125 38.71875 42.453125 
Q 35.453125 44.390625 28.515625 44.390625 
Q 22.90625 44.390625 18.0625 43.265625 
Q 13.234375 42.140625 9.078125 39.890625 
L 9.078125 53.21875 
Q 14.703125 54.59375 20.359375 55.296875 
Q 26.03125 56 31.6875 56 
Q 46.484375 56 53.046875 50.171875 
Q 59.625 44.34375 59.625 31.203125 
z
" id="DejaVuSans-Bold-97"/>
      <path d="M 8.40625 75.984375 
L 25.875 75.984375 
L 25.875 0 
L 8.40625 0 
z
" id="DejaVuSans-Bold-108"/>
      <path d="M 37.5 11.28125 
Q 43.109375 11.28125 46.0625 15.375 
Q 49.03125 19.484375 49.03125 27.296875 
Q 49.03125 35.109375 46.0625 39.203125 
Q 43.109375 43.3125 37.5 43.3125 
Q 31.890625 43.3125 28.875 39.1875 
Q 25.875 35.0625 25.875 27.296875 
Q 25.875 19.53125 28.875 15.40625 
Q 31.890625 11.28125 37.5 11.28125 
z
M 25.875 46.6875 
Q 29.5 51.46875 33.890625 53.734375 
Q 38.28125 56 44 56 
Q 54.109375 56 60.59375 47.96875 
Q 67.09375 39.9375 67.09375 27.296875 
Q 67.09375 14.65625 60.59375 6.609375 
Q 54.109375 -1.421875 44 -1.421875 
Q 38.28125 -1.421875 33.890625 0.84375 
Q 29.5 3.125 25.875 7.90625 
L 25.875 0 
L 8.40625 0 
L 8.40625 75.984375 
L 25.875 75.984375 
z
" id="DejaVuSans-Bold-98"/>
      <path d="M 62.984375 27.484375 
L 62.984375 22.515625 
L 22.125 22.515625 
Q 22.75 16.359375 26.5625 13.28125 
Q 30.375 10.203125 37.203125 10.203125 
Q 42.71875 10.203125 48.5 11.84375 
Q 54.296875 13.484375 60.40625 16.796875 
L 60.40625 3.328125 
Q 54.203125 0.984375 48 -0.21875 
Q 41.796875 -1.421875 35.59375 -1.421875 
Q 20.75 -1.421875 12.515625 6.125 
Q 4.296875 13.671875 4.296875 27.296875 
Q 4.296875 40.671875 12.375 48.328125 
Q 20.453125 56 34.625 56 
Q 47.515625 56 55.25 48.234375 
Q 62.984375 40.484375 62.984375 27.484375 
z
M 45.015625 33.296875 
Q 45.015625 38.28125 42.109375 41.328125 
Q 39.203125 44.390625 34.515625 44.390625 
Q 29.4375 44.390625 26.265625 41.53125 
Q 23.09375 38.671875 22.3125 33.296875 
z
" id="DejaVuSans-Bold-101"/>
      <path d="M 49.03125 39.796875 
Q 46.734375 40.875 44.453125 41.375 
Q 42.1875 41.890625 39.890625 41.890625 
Q 33.15625 41.890625 29.515625 37.5625 
Q 25.875 33.25 25.875 25.203125 
L 25.875 0 
L 8.40625 0 
L 8.40625 54.6875 
L 25.875 54.6875 
L 25.875 45.703125 
Q 29.25 51.078125 33.609375 53.53125 
Q 37.984375 56 44.09375 56 
Q 44.96875 56 45.984375 55.921875 
Q 47.015625 55.859375 48.96875 55.609375 
z
" id="DejaVuSans-Bold-114"/>
      <path d="M 51.125 52.984375 
L 51.125 39.703125 
Q 45.515625 42.046875 40.28125 43.21875 
Q 35.0625 44.390625 30.421875 44.390625 
Q 25.4375 44.390625 23.015625 43.140625 
Q 20.609375 41.890625 20.609375 39.3125 
Q 20.609375 37.203125 22.4375 36.078125 
Q 24.265625 34.96875 29 34.421875 
L 32.078125 33.984375 
Q 45.515625 32.28125 50.140625 28.375 
Q 54.78125 24.46875 54.78125 16.109375 
Q 54.78125 7.375 48.328125 2.96875 
Q 41.890625 -1.421875 29.109375 -1.421875 
Q 23.6875 -1.421875 17.890625 -0.5625 
Q 12.109375 0.296875 6 2 
L 6 15.28125 
Q 11.234375 12.75 16.71875 11.46875 
Q 22.21875 10.203125 27.875 10.203125 
Q 33.015625 10.203125 35.59375 11.609375 
Q 38.1875 13.03125 38.1875 15.828125 
Q 38.1875 18.171875 36.40625 19.3125 
Q 34.625 20.453125 29.296875 21.09375 
L 26.21875 21.484375 
Q 14.546875 22.953125 9.859375 26.90625 
Q 5.171875 30.859375 5.171875 38.921875 
Q 5.171875 47.609375 11.125 51.796875 
Q 17.09375 56 29.390625 56 
Q 34.234375 56 39.546875 55.265625 
Q 44.875 54.546875 51.125 52.984375 
z
" id="DejaVuSans-Bold-115"/>
      <path d="M 34.078125 43.3125 
Q 28.515625 43.3125 25.5625 39.203125 
Q 22.609375 35.109375 22.609375 27.296875 
Q 22.609375 19.484375 25.5625 15.375 
Q 28.515625 11.28125 34.078125 11.28125 
Q 39.703125 11.28125 42.65625 15.375 
Q 45.609375 19.484375 45.609375 27.296875 
Q 45.609375 35.109375 42.65625 39.203125 
Q 39.703125 43.3125 34.078125 43.3125 
z
M 45.609375 7.90625 
Q 42 3.078125 37.640625 0.828125 
Q 33.296875 -1.421875 27.59375 -1.421875 
Q 17.484375 -1.421875 10.984375 6.609375 
Q 4.5 14.65625 4.5 27.296875 
Q 4.5 39.9375 10.984375 47.921875 
Q 17.484375 55.90625 27.59375 55.90625 
Q 33.296875 55.90625 37.640625 53.65625 
Q 42 51.421875 45.609375 46.578125 
L 45.609375 54.6875 
L 63.1875 54.6875 
L 63.1875 -20.796875 
L 45.609375 -20.796875 
z
" id="DejaVuSans-Bold-113"/>
      <path d="M 7.8125 21.296875 
L 7.8125 54.6875 
L 25.390625 54.6875 
L 25.390625 49.21875 
Q 25.390625 44.78125 25.34375 38.0625 
Q 25.296875 31.34375 25.296875 29.109375 
Q 25.296875 22.515625 25.640625 19.609375 
Q 25.984375 16.703125 26.8125 15.375 
Q 27.875 13.671875 29.609375 12.734375 
Q 31.34375 11.8125 33.59375 11.8125 
Q 39.0625 11.8125 42.1875 16.015625 
Q 45.3125 20.21875 45.3125 27.6875 
L 45.3125 54.6875 
L 62.796875 54.6875 
L 62.796875 0 
L 45.3125 0 
L 45.3125 7.90625 
Q 41.359375 3.125 36.9375 0.84375 
Q 32.515625 -1.421875 27.203125 -1.421875 
Q 17.71875 -1.421875 12.765625 4.390625 
Q 7.8125 10.203125 7.8125 21.296875 
z
" id="DejaVuSans-Bold-117"/>
      <path d="M 63.375 33.296875 
L 63.375 0 
L 45.796875 0 
L 45.796875 5.421875 
L 45.796875 25.484375 
Q 45.796875 32.5625 45.484375 35.25 
Q 45.171875 37.9375 44.390625 39.203125 
Q 43.359375 40.921875 41.59375 41.875 
Q 39.84375 42.828125 37.59375 42.828125 
Q 32.125 42.828125 29 38.59375 
Q 25.875 34.375 25.875 26.90625 
L 25.875 0 
L 8.40625 0 
L 8.40625 54.6875 
L 25.875 54.6875 
L 25.875 46.6875 
Q 29.828125 51.46875 34.265625 53.734375 
Q 38.71875 56 44.09375 56 
Q 53.5625 56 58.46875 50.1875 
Q 63.375 44.390625 63.375 33.296875 
z
" id="DejaVuSans-Bold-110"/>
      <path d="M 52.59375 52.984375 
L 52.59375 38.71875 
Q 49.03125 41.15625 45.4375 42.328125 
Q 41.84375 43.5 37.984375 43.5 
Q 30.671875 43.5 26.59375 39.234375 
Q 22.515625 34.96875 22.515625 27.296875 
Q 22.515625 19.625 26.59375 15.34375 
Q 30.671875 11.078125 37.984375 11.078125 
Q 42.09375 11.078125 45.78125 12.296875 
Q 49.46875 13.53125 52.59375 15.921875 
L 52.59375 1.609375 
Q 48.484375 0.09375 44.265625 -0.65625 
Q 40.046875 -1.421875 35.796875 -1.421875 
Q 21 -1.421875 12.640625 6.171875 
Q 4.296875 13.765625 4.296875 27.296875 
Q 4.296875 40.828125 12.640625 48.40625 
Q 21 56 35.796875 56 
Q 40.09375 56 44.265625 55.25 
Q 48.4375 54.5 52.59375 52.984375 
z
" id="DejaVuSans-Bold-99"/>
      <path d="M 37.703125 -13.1875 
L 23.1875 -13.1875 
Q 15.71875 -1.125 12.15625 9.734375 
Q 8.59375 20.609375 8.59375 31.296875 
Q 8.59375 42 12.171875 52.953125 
Q 15.765625 63.921875 23.1875 75.875 
L 37.703125 75.875 
Q 31.453125 64.3125 28.328125 53.25 
Q 25.203125 42.1875 25.203125 31.390625 
Q 25.203125 20.609375 28.296875 9.515625 
Q 31.390625 -1.5625 37.703125 -13.1875 
z
" id="DejaVuSans-Bold-40"/>
      <path d="M 8.015625 -13.1875 
Q 14.265625 -1.5625 17.390625 9.515625 
Q 20.515625 20.609375 20.515625 31.390625 
Q 20.515625 42.1875 17.390625 53.25 
Q 14.265625 64.3125 8.015625 75.875 
L 22.515625 75.875 
Q 29.9375 63.921875 33.515625 52.953125 
Q 37.109375 42 37.109375 31.296875 
Q 37.109375 20.609375 33.546875 9.734375 
Q 29.984375 -1.125 22.515625 -13.1875 
z
" id="DejaVuSans-Bold-41"/>
     </defs>
     <g transform="translate(158.814453 495.191406)scale(0.25 -0.25)">
      <use xlink:href="#DejaVuSans-Bold-84"/>
      <use x="68.212891" xlink:href="#DejaVuSans-Bold-105"/>
      <use x="102.490234" xlink:href="#DejaVuSans-Bold-112"/>
      <use x="174.072266" xlink:href="#DejaVuSans-Bold-32"/>
      <use x="208.886719" xlink:href="#DejaVuSans-Bold-111"/>
      <use x="277.587891" xlink:href="#DejaVuSans-Bold-102"/>
      <use x="321.09375" xlink:href="#DejaVuSans-Bold-32"/>
      <use x="355.908203" xlink:href="#DejaVuSans-Bold-116"/>
      <use x="403.710938" xlink:href="#DejaVuSans-Bold-97"/>
      <use x="471.191406" xlink:href="#DejaVuSans-Bold-105"/>
      <use x="505.46875" xlink:href="#DejaVuSans-Bold-108"/>
      <use x="539.746094" xlink:href="#DejaVuSans-Bold-32"/>
      <use x="574.560547" xlink:href="#DejaVuSans-Bold-102"/>
      <use x="618.066406" xlink:href="#DejaVuSans-Bold-105"/>
      <use x="652.34375" xlink:href="#DejaVuSans-Bold-98"/>
      <use x="723.925781" xlink:href="#DejaVuSans-Bold-101"/>
      <use x="791.748047" xlink:href="#DejaVuSans-Bold-114"/>
      <use x="841.064453" xlink:href="#DejaVuSans-Bold-32"/>
      <use x="875.878906" xlink:href="#DejaVuSans-Bold-115"/>
      <use x="935.400391" xlink:href="#DejaVuSans-Bold-101"/>
      <use x="1003.222656" xlink:href="#DejaVuSans-Bold-113"/>
      <use x="1074.804688" xlink:href="#DejaVuSans-Bold-117"/>
      <use x="1145.996094" xlink:href="#DejaVuSans-Bold-101"/>
      <use x="1213.818359" xlink:href="#DejaVuSans-Bold-110"/>
      <use x="1285.009766" xlink:href="#DejaVuSans-Bold-99"/>
      <use x="1344.287109" xlink:href="#DejaVuSans-Bold-101"/>
      <use x="1412.109375" xlink:href="#DejaVuSans-Bold-32"/>
      <use x="1446.923828" xlink:href="#DejaVuSans-Bold-40"/>
      <use x="1492.626953" xlink:href="#DejaVuSans-Bold-98"/>
      <use x="1564.208984" xlink:href="#DejaVuSans-Bold-112"/>
      <use x="1635.791016" xlink:href="#DejaVuSans-Bold-41"/>
     </g>
    </g>
   </g>
   <g id="matplotlib.axis_2">
    <g id="ytick_1">
     <g id="line2d_7">
      <defs>
       <path d="M 0 0 
L -3.5 0 
" id="m4429289bb1" style="stroke:#000000;stroke-width:0.8;"/>
      </defs>
      <g>
       <use style="stroke:#000000;stroke-width:0.8;" x="90" xlink:href="#m4429289bb1" y="441"/>
      </g>
     </g>
     <g id="text_8">
      <!-- 0.000 -->
      <defs>
       <path d="M 10.6875 12.40625 
L 21 12.40625 
L 21 0 
L 10.6875 0 
z
" id="DejaVuSans-46"/>
      </defs>
      <g transform="translate(11.429688 450.498047)scale(0.25 -0.25)">
       <use xlink:href="#DejaVuSans-48"/>
       <use x="63.623047" xlink:href="#DejaVuSans-46"/>
       <use x="95.410156" xlink:href="#DejaVuSans-48"/>
       <use x="159.033203" xlink:href="#DejaVuSans-48"/>
       <use x="222.65625" xlink:href="#DejaVuSans-48"/>
      </g>
     </g>
    </g>
    <g id="ytick_2">
     <g id="line2d_8">
      <g>
       <use style="stroke:#000000;stroke-width:0.8;" x="90" xlink:href="#m4429289bb1" y="345.87"/>
      </g>
     </g>
     <g id="text_9">
      <!-- 0.005 -->
      <g transform="translate(11.429688 355.368047)scale(0.25 -0.25)">
       <use xlink:href="#DejaVuSans-48"/>
       <use x="63.623047" xlink:href="#DejaVuSans-46"/>
       <use x="95.410156" xlink:href="#DejaVuSans-48"/>
       <use x="159.033203" xlink:href="#DejaVuSans-48"/>
       <use x="222.65625" xlink:href="#DejaVuSans-53"/>
      </g>
     </g>
    </g>
    <g id="ytick_3">
     <g id="line2d_9">
      <g>
       <use style="stroke:#000000;stroke-width:0.8;" x="90" xlink:href="#m4429289bb1" y="250.74"/>
      </g>
     </g>
     <g id="text_10">
      <!-- 0.010 -->
      <g transform="translate(11.429688 260.238047)scale(0.25 -0.25)">
       <use xlink:href="#DejaVuSans-48"/>
       <use x="63.623047" xlink:href="#DejaVuSans-46"/>
       <use x="95.410156" xlink:href="#DejaVuSans-48"/>
       <use x="159.033203" xlink:href="#DejaVuSans-49"/>
       <use x="222.65625" xlink:href="#DejaVuSans-48"/>
      </g>
     </g>
    </g>
    <g id="ytick_4">
     <g id="line2d_10">
      <g>
       <use style="stroke:#000000;stroke-width:0.8;" x="90" xlink:href="#m4429289bb1" y="155.61"/>
      </g>
     </g>
     <g id="text_11">
      <!-- 0.015 -->
      <g transform="translate(11.429688 165.108047)scale(0.25 -0.25)">
       <use xlink:href="#DejaVuSans-48"/>
       <use x="63.623047" xlink:href="#DejaVuSans-46"/>
       <use x="95.410156" xlink:href="#DejaVuSans-48"/>
       <use x="159.033203" xlink:href="#DejaVuSans-49"/>
       <use x="222.65625" xlink:href="#DejaVuSans-53"/>
      </g>
     </g>
    </g>
    <g id="ytick_5">
     <g id="line2d_11">
      <g>
       <use style="stroke:#000000;stroke-width:0.8;" x="90" xlink:href="#m4429289bb1" y="60.48"/>
      </g>
     </g>
     <g id="text_12">
      <!-- 0.020 -->
      <g transform="translate(11.429688 69.978047)scale(0.25 -0.25)">
       <use xlink:href="#DejaVuSans-48"/>
       <use x="63.623047" xlink:href="#DejaVuSans-46"/>
       <use x="95.410156" xlink:href="#DejaVuSans-48"/>
       <use x="159.033203" xlink:href="#DejaVuSans-50"/>
       <use x="222.65625" xlink:href="#DejaVuSans-48"/>
      </g>
     </g>
    </g>
    <g id="text_13">
     <!-- mutation frequency -->
     <defs>
      <path d="M 59.078125 45.609375 
Q 62.40625 50.6875 66.96875 53.34375 
Q 71.53125 56 77 56 
Q 86.421875 56 91.359375 50.1875 
Q 96.296875 44.390625 96.296875 33.296875 
L 96.296875 0 
L 78.71875 0 
L 78.71875 28.515625 
Q 78.765625 29.15625 78.78125 29.828125 
Q 78.8125 30.515625 78.8125 31.78125 
Q 78.8125 37.59375 77.09375 40.203125 
Q 75.390625 42.828125 71.578125 42.828125 
Q 66.609375 42.828125 63.890625 38.71875 
Q 61.1875 34.625 61.078125 26.859375 
L 61.078125 0 
L 43.5 0 
L 43.5 28.515625 
Q 43.5 37.59375 41.9375 40.203125 
Q 40.375 42.828125 36.375 42.828125 
Q 31.34375 42.828125 28.609375 38.703125 
Q 25.875 34.578125 25.875 26.90625 
L 25.875 0 
L 8.296875 0 
L 8.296875 54.6875 
L 25.875 54.6875 
L 25.875 46.6875 
Q 29.109375 51.3125 33.28125 53.65625 
Q 37.453125 56 42.484375 56 
Q 48.140625 56 52.484375 53.265625 
Q 56.84375 50.53125 59.078125 45.609375 
z
" id="DejaVuSans-Bold-109"/>
      <path d="M 1.21875 54.6875 
L 18.703125 54.6875 
L 33.40625 17.578125 
L 45.90625 54.6875 
L 63.375 54.6875 
L 40.375 -5.171875 
Q 36.921875 -14.3125 32.296875 -17.9375 
Q 27.6875 -21.578125 20.125 -21.578125 
L 10.015625 -21.578125 
L 10.015625 -10.109375 
L 15.484375 -10.109375 
Q 19.921875 -10.109375 21.9375 -8.6875 
Q 23.96875 -7.28125 25.09375 -3.609375 
L 25.59375 -2.09375 
z
" id="DejaVuSans-Bold-121"/>
     </defs>
     <g transform="translate(2.035156 390.032969)rotate(-90)scale(0.25 -0.25)">
      <use xlink:href="#DejaVuSans-Bold-109"/>
      <use x="104.199219" xlink:href="#DejaVuSans-Bold-117"/>
      <use x="175.390625" xlink:href="#DejaVuSans-Bold-116"/>
      <use x="223.193359" xlink:href="#DejaVuSans-Bold-97"/>
      <use x="290.673828" xlink:href="#DejaVuSans-Bold-116"/>
      <use x="338.476562" xlink:href="#DejaVuSans-Bold-105"/>
      <use x="372.753906" xlink:href="#DejaVuSans-Bold-111"/>
      <use x="441.455078" xlink:href="#DejaVuSans-Bold-110"/>
      <use x="512.646484" xlink:href="#DejaVuSans-Bold-32"/>
      <use x="547.460938" xlink:href="#DejaVuSans-Bold-102"/>
      <use x="590.966797" xlink:href="#DejaVuSans-Bold-114"/>
      <use x="640.283203" xlink:href="#DejaVuSans-Bold-101"/>
      <use x="708.105469" xlink:href="#DejaVuSans-Bold-113"/>
      <use x="779.6875" xlink:href="#DejaVuSans-Bold-117"/>
      <use x="850.878906" xlink:href="#DejaVuSans-Bold-101"/>
      <use x="918.701172" xlink:href="#DejaVuSans-Bold-110"/>
      <use x="989.892578" xlink:href="#DejaVuSans-Bold-99"/>
      <use x="1049.169922" xlink:href="#DejaVuSans-Bold-121"/>
     </g>
    </g>
   </g>
   <g id="line2d_12">
    <path clip-path="url(#pa01f60c7ab)" d="M 115.363636 434.04497 
L 116.263056 438.182297 
L 117.162476 432.858428 
L 118.061896 435.448236 
L 118.961315 436.132839 
L 119.860735 429.421235 
L 120.760155 433.211182 
L 121.659574 427.289651 
L 122.558994 429.804179 
L 123.458414 426.416883 
L 124.357834 429.728162 
L 125.257253 421.620973 
L 126.156673 425.130128 
L 127.056093 425.581107 
L 127.955513 423.391795 
L 128.854932 429.975424 
L 129.754352 428.925741 
L 130.653772 433.286159 
L 131.553191 427.115877 
L 132.452611 434.761236 
L 133.352031 436.293133 
L 134.251451 428.885423 
L 135.15087 428.677697 
L 136.05029 431.298264 
L 137.84913 420.007568 
L 138.748549 420.922966 
L 139.647969 349.594092 
L 140.547389 389.502021 
L 141.446809 308.92929 
L 142.346228 416.579012 
L 143.245648 278.813928 
L 144.145068 272.998708 
L 145.044487 369.648105 
L 145.943907 313.28455 
L 146.843327 332.844934 
L 147.742747 332.495749 
L 148.642166 349.860228 
L 149.541586 278.216398 
L 150.441006 374.67348 
L 151.340426 152.183798 
L 152.239845 326.63401 
L 153.139265 311.365398 
L 154.038685 303.040286 
L 154.938104 280.33344 
L 155.837524 350.41124 
L 156.736944 267.257859 
L 157.636364 219.982188 
L 158.535783 182.225395 
L 159.435203 307.972872 
L 160.334623 329.108398 
L 161.234043 282.901398 
L 162.133462 230.500598 
L 163.032882 334.277173 
L 163.932302 276.88747 
L 164.831721 321.210953 
L 165.731141 285.481495 
L 166.630561 323.556688 
L 167.529981 243.551102 
L 168.4294 349.677464 
L 169.32882 89.374025 
L 170.22824 337.342908 
L 171.12766 285.888861 
L 172.027079 277.463254 
L 172.926499 282.036286 
L 173.825919 194.750287 
L 174.725338 353.880935 
L 175.624758 177.360904 
L 176.524178 174.83368 
L 177.423598 348.211853 
L 178.323017 201.506743 
L 179.222437 267.798084 
L 180.121857 246.742809 
L 181.021277 345.801411 
L 181.920696 230.719549 
L 182.820116 338.351267 
L 183.719536 141.395675 
L 184.618956 298.167823 
L 185.518375 213.710705 
L 186.417795 303.388899 
L 187.317215 324.623685 
L 188.216634 314.173845 
L 189.116054 204.661977 
L 190.015474 174.702268 
L 190.914894 356.570698 
L 191.814313 275.019535 
L 192.713733 230.934048 
L 193.613153 321.493071 
L 194.512573 214.022503 
L 195.411992 351.729589 
L 196.311412 284.483125 
L 197.210832 290.410237 
L 198.110251 272.846005 
L 199.009671 204.095839 
L 199.909091 308.192241 
L 200.808511 234.583178 
L 201.70793 232.219901 
L 202.60735 313.056866 
L 203.50677 211.596783 
L 204.40619 202.497332 
L 205.305609 331.368459 
L 206.205029 298.081635 
L 207.104449 280.930799 
L 208.003868 276.983475 
L 208.903288 257.051875 
L 209.802708 309.579579 
L 210.702128 262.420385 
L 211.601547 363.911766 
L 212.500967 316.503654 
L 213.400387 239.496738 
L 214.299807 251.307584 
L 215.199226 311.463305 
L 216.098646 218.063606 
L 216.998066 370.713276 
L 217.897485 248.065001 
L 218.796905 319.271462 
L 219.696325 200.252226 
L 220.595745 353.433158 
L 221.495164 191.15171 
L 222.394584 197.428235 
L 223.294004 306.820315 
L 224.193424 325.390604 
L 225.092843 226.651505 
L 225.992263 248.909128 
L 226.891683 357.322739 
L 227.791103 278.72462 
L 228.690522 327.613392 
L 229.589942 299.771962 
L 230.489362 265.487471 
L 231.388781 181.915766 
L 232.288201 294.632811 
L 233.187621 285.041785 
L 234.087041 128.765836 
L 234.98646 319.731891 
L 235.88588 263.586622 
L 236.7853 237.711661 
L 237.68472 346.877065 
L 238.584139 251.588369 
L 239.483559 257.291508 
L 240.382979 274.505795 
L 241.282398 191.58379 
L 242.181818 367.362169 
L 243.081238 170.782074 
L 243.980658 205.064092 
L 244.880077 249.665982 
L 245.779497 358.655396 
L 246.678917 268.285701 
L 247.578337 344.148261 
L 248.477756 183.689579 
L 249.377176 157.026219 
L 250.276596 354.514311 
L 251.176015 299.7427 
L 252.075435 205.938907 
L 252.974855 290.927288 
L 253.874275 308.446048 
L 254.773694 267.080328 
L 255.673114 289.819708 
L 256.572534 278.697851 
L 257.471954 346.97971 
L 258.371373 229.040543 
L 259.270793 329.429177 
L 260.170213 165.937104 
L 261.069632 301.318072 
L 261.969052 326.867916 
L 262.868472 333.595243 
L 263.767892 278.282304 
L 264.667311 319.087081 
L 265.566731 218.237428 
L 266.466151 219.361312 
L 267.365571 317.341198 
L 268.26499 181.7897 
L 269.16441 324.52865 
L 270.06383 298.333634 
L 270.96325 285.790839 
L 271.862669 288.239637 
L 272.762089 198.874116 
L 273.661509 342.066531 
L 274.560928 164.384791 
L 275.460348 352.562243 
L 276.359768 182.515009 
L 277.259188 254.021148 
L 278.158607 298.23253 
L 279.058027 323.752275 
L 279.957447 281.601979 
L 280.856867 264.725575 
L 281.756286 222.42193 
L 282.655706 333.429869 
L 283.555126 314.933515 
L 284.454545 244.988497 
L 285.353965 219.907092 
L 286.253385 341.303303 
L 287.152805 166.926227 
L 288.052224 223.264553 
L 288.951644 328.254093 
L 289.851064 300.134921 
L 290.750484 316.678865 
L 291.649903 303.732071 
L 292.549323 330.031825 
L 293.448743 257.952871 
L 294.348162 271.429538 
L 295.247582 191.67892 
L 296.147002 327.973764 
L 297.046422 221.397151 
L 297.945841 364.007105 
L 298.845261 296.645039 
L 299.744681 279.857333 
L 300.644101 349.123008 
L 301.54352 157.054264 
L 302.44294 306.132677 
L 303.34236 352.25758 
L 304.241779 295.733122 
L 305.141199 253.189521 
L 306.040619 153.769235 
L 306.940039 261.70887 
L 307.839458 260.057698 
L 308.738878 328.248594 
L 310.537718 290.24844 
L 311.437137 144.654829 
L 312.336557 307.418454 
L 313.235977 340.501795 
L 314.135397 223.151805 
L 315.034816 257.86714 
L 315.934236 338.713827 
L 316.833656 316.450743 
L 317.733075 173.847753 
L 318.632495 263.159469 
L 319.531915 286.74113 
L 320.431335 346.213058 
L 321.330754 268.245328 
L 322.230174 251.465328 
L 323.129594 252.080743 
L 324.029014 303.694305 
L 324.928433 289.327905 
L 325.827853 193.769402 
L 326.727273 323.820065 
L 327.626692 163.967551 
L 328.526112 324.349197 
L 329.425532 196.488141 
L 330.324952 311.258833 
L 331.224371 326.856196 
L 332.123791 232.220187 
L 333.023211 241.677174 
L 333.922631 342.870989 
L 334.82205 320.727027 
L 335.72147 236.406953 
L 336.62089 195.558949 
L 337.520309 318.278019 
L 338.419729 266.191566 
L 339.319149 314.262049 
L 340.218569 211.428612 
L 341.117988 219.652486 
L 342.017408 351.637846 
L 342.916828 278.042957 
L 343.816248 355.392437 
L 344.715667 321.09459 
L 345.615087 178.196088 
L 346.514507 185.726541 
L 347.413926 348.296766 
L 348.313346 363.346903 
L 349.212766 311.754441 
L 351.011605 243.086677 
L 351.911025 326.13882 
L 352.810445 364.968793 
L 353.709865 235.857463 
L 354.609284 339.861152 
L 355.508704 206.064859 
L 356.408124 352.48534 
L 357.307544 135.11291 
L 358.206963 279.438133 
L 359.106383 348.219882 
L 360.005803 228.008116 
L 360.905222 316.687693 
L 361.804642 184.447518 
L 362.704062 325.202342 
L 363.603482 333.496022 
L 364.502901 288.17864 
L 365.402321 312.881865 
L 366.301741 146.423106 
L 367.201161 300.010148 
L 368.10058 328.957465 
L 369 234.104046 
L 369.89942 220.363222 
L 370.798839 304.619235 
L 371.698259 239.686446 
L 372.597679 310.845265 
L 373.497099 255.125683 
L 374.396518 176.638277 
L 375.295938 294.333227 
L 376.195358 336.655746 
L 377.094778 263.788982 
L 377.994197 261.247413 
L 378.893617 324.568509 
L 379.793037 210.377102 
L 380.692456 325.931075 
L 381.591876 307.357514 
L 382.491296 280.510991 
L 383.390716 330.086411 
L 384.290135 307.762691 
L 385.189555 196.166735 
L 386.088975 168.373155 
L 386.988395 320.478452 
L 387.887814 218.688838 
L 388.787234 326.106838 
L 389.686654 145.779456 
L 390.586074 312.526878 
L 391.485493 194.886647 
L 392.384913 328.146139 
L 393.284333 178.923699 
L 394.183752 354.961783 
L 395.083172 194.194347 
L 395.982592 175.823432 
L 396.882012 160.612449 
L 397.781431 353.945776 
L 398.680851 115.285154 
L 399.580271 329.013078 
L 400.479691 182.489933 
L 401.37911 250.946927 
L 402.27853 352.156133 
L 403.17795 305.031224 
L 404.077369 310.283808 
L 404.976789 366.116175 
L 405.876209 158.906007 
L 406.775629 353.326518 
L 407.675048 244.682084 
L 408.574468 310.473173 
L 409.473888 337.41848 
L 410.373308 189.168763 
L 411.272727 226.624393 
L 412.172147 368.018623 
L 413.071567 225.617251 
L 413.970986 256.60172 
L 414.870406 293.507385 
L 415.769826 119.941863 
L 416.669246 212.634994 
L 417.568665 341.239718 
L 418.468085 310.657821 
L 419.367505 285.931156 
L 420.266925 347.833103 
L 421.166344 82.423257 
L 422.065764 264.518154 
L 422.965184 344.17016 
L 423.864603 251.713522 
L 424.764023 256.190093 
L 425.663443 286.861013 
L 426.562863 265.678131 
L 427.462282 167.557947 
L 428.361702 347.338141 
L 429.261122 221.018534 
L 430.160542 326.997235 
L 431.059961 137.346562 
L 431.959381 275.264952 
L 432.858801 276.830164 
L 433.758221 308.780925 
L 434.65764 134.694243 
L 435.55706 186.796125 
L 436.45648 345.318246 
L 437.355899 238.546465 
L 438.255319 252.212974 
L 439.154739 354.437465 
L 440.054159 240.425872 
L 440.953578 362.971825 
L 441.852998 121.226593 
L 442.752418 118.123662 
L 443.651838 329.628874 
L 444.551257 348.602838 
L 445.450677 208.99785 
L 446.350097 220.042843 
L 447.249516 353.63961 
L 448.148936 188.798555 
L 449.048356 296.767224 
L 449.947776 374.27616 
L 450.847195 142.335084 
L 451.746615 168.904608 
L 452.646035 350.022672 
L 453.545455 227.315341 
L 454.444874 281.275208 
L 455.344294 207.705262 
L 456.243714 253.843807 
L 457.143133 282.448161 
L 458.042553 121.132034 
L 458.941973 346.851228 
L 460.740812 291.454498 
L 461.640232 301.192367 
L 462.539652 306.300981 
L 463.439072 267.314043 
L 464.338491 308.7314 
L 465.237911 191.146021 
L 466.137331 213.277578 
L 467.03675 272.37572 
L 467.93617 343.448371 
L 468.83559 157.447227 
L 469.73501 212.276068 
L 470.634429 285.471811 
L 471.533849 335.353835 
L 472.433269 216.855017 
L 473.332689 269.3511 
L 474.232108 334.589675 
L 475.131528 131.601091 
L 476.030948 155.581727 
L 476.930368 354.916387 
L 477.829787 175.143519 
L 478.729207 245.274211 
L 479.628627 301.983677 
L 480.528046 317.981023 
L 481.427466 323.654424 
L 482.326886 295.735139 
L 483.226306 261.438491 
L 484.125725 352.830586 
L 485.025145 129.931749 
L 485.924565 344.730704 
L 486.823985 223.6008 
L 487.723404 226.722738 
L 488.622824 282.380143 
L 489.522244 320.16283 
L 490.421663 171.631604 
L 491.321083 275.720472 
L 492.220503 336.839119 
L 493.119923 183.636268 
L 494.019342 226.995191 
L 495.818182 354.427457 
L 496.717602 205.608844 
L 497.617021 276.5548 
L 498.516441 262.088628 
L 499.415861 283.362931 
L 500.31528 301.998651 
L 501.2147 262.404974 
L 502.11412 216.392153 
L 503.01354 191.029696 
L 503.912959 340.02194 
L 504.812379 332.152197 
L 505.711799 72.762691 
L 506.611219 156.876656 
L 507.510638 268.341238 
L 508.410058 276.231891 
L 509.309478 282.20712 
L 510.208897 305.633416 
L 511.108317 234.063901 
L 512.007737 330.14425 
L 512.907157 148.701469 
L 513.806576 340.723943 
L 514.705996 323.335549 
L 515.605416 176.667825 
L 516.504836 185.323741 
L 517.404255 325.661915 
L 518.303675 268.34217 
L 519.203095 360.120036 
L 520.102515 288.115378 
L 521.001934 355.214943 
L 521.901354 225.787553 
L 522.800774 329.298069 
L 523.700193 246.776485 
L 524.599613 339.32829 
L 525.499033 266.010287 
L 526.398453 264.539444 
L 527.297872 226.168549 
L 528.197292 360.316994 
L 529.096712 96.562371 
L 529.996132 127.098017 
L 530.895551 356.881298 
L 531.794971 278.150397 
L 532.694391 250.036761 
L 533.59381 317.471298 
L 534.49323 334.179779 
L 535.39265 210.985592 
L 536.29207 133.388583 
L 537.191489 298.019439 
L 538.090909 277.652087 
L 538.990329 94.878247 
L 539.889749 324.511907 
L 540.789168 258.146651 
L 541.688588 323.991774 
L 542.588008 172.864679 
L 543.487427 338.696171 
L 544.386847 245.171413 
L 545.286267 309.565576 
L 546.185687 310.254298 
L 547.085106 224.787471 
L 547.984526 180.837639 
L 548.883946 327.079523 
L 549.783366 150.766741 
L 550.682785 309.425887 
L 551.582205 261.236169 
L 552.481625 269.088104 
L 553.381044 314.054 
L 554.280464 285.963823 
L 555.179884 219.559392 
L 556.079304 281.657669 
L 556.978723 237.20009 
L 557.878143 226.574411 
L 558.777563 323.641087 
L 559.676983 291.141901 
L 560.576402 142.739653 
L 561.475822 254.792291 
L 562.375242 270.257898 
L 563.274662 344.210552 
L 564.174081 228.514169 
L 565.073501 213.399496 
L 565.972921 286.300812 
L 566.87234 310.996484 
L 567.77176 172.645119 
L 568.67118 297.953818 
L 569.5706 356.381884 
L 570.470019 178.184216 
L 571.369439 353.259071 
L 572.268859 260.156044 
L 573.168279 218.789505 
L 574.067698 307.227262 
L 574.967118 305.404362 
L 575.866538 197.595283 
L 576.765957 358.801211 
L 577.665377 287.266039 
L 578.564797 278.274218 
L 579.464217 254.640711 
L 580.363636 263.681847 
L 581.263056 149.828626 
L 582.162476 308.926036 
L 583.061896 347.623265 
L 583.961315 259.077574 
L 584.860735 268.007769 
L 585.760155 177.772056 
L 586.659574 288.919189 
L 587.558994 264.555882 
L 588.458414 350.709967 
L 589.357834 170.34031 
L 590.257253 329.436254 
L 591.156673 199.954127 
L 592.056093 219.55905 
L 592.955513 353.6023 
L 593.854932 391.883734 
L 594.754352 253.301813 
L 595.653772 232.023477 
L 596.553191 248.452428 
L 597.452611 382.465693 
L 598.352031 315.451536 
L 599.251451 335.016751 
L 600.15087 313.780292 
L 601.05029 286.15513 
L 601.94971 392.762298 
L 602.84913 289.714951 
L 603.748549 295.086029 
L 604.647969 406.652271 
L 605.547389 377.966215 
L 606.446809 425.485343 
L 607.346228 422.836576 
L 608.245648 423.594085 
L 609.145068 421.187484 
L 610.044487 429.305165 
L 610.943907 434.402204 
L 611.843327 422.858435 
L 612.742747 432.962059 
L 613.642166 429.997742 
L 614.541586 431.565762 
L 615.441006 391.483669 
L 616.340426 429.372051 
L 617.239845 435.61354 
L 618.139265 435.605385 
L 619.038685 428.519958 
L 619.938104 436.876672 
L 620.837524 437.073669 
L 621.736944 436.792299 
L 622.636364 433.135895 
L 622.636364 433.135895 
" style="fill:none;stroke:#808080;stroke-linecap:square;stroke-width:1.5;"/>
   </g>
   <g id="patch_3">
    <path d="M 90 441 
L 90 60.48 
" style="fill:none;stroke:#000000;stroke-linecap:square;stroke-linejoin:miter;stroke-width:0.8;"/>
   </g>
   <g id="patch_4">
    <path d="M 648 441 
L 648 60.48 
" style="fill:none;stroke:#000000;stroke-linecap:square;stroke-linejoin:miter;stroke-width:0.8;"/>
   </g>
   <g id="patch_5">
    <path d="M 90 441 
L 648 441 
" style="fill:none;stroke:#000000;stroke-linecap:square;stroke-linejoin:miter;stroke-width:0.8;"/>
   </g>
   <g id="patch_6">
    <path d="M 90 60.48 
L 648 60.48 
" style="fill:none;stroke:#000000;stroke-linecap:square;stroke-linejoin:miter;stroke-width:0.8;"/>
   </g>
  </g>
 </g>
 <defs>
  <clipPath id="pa01f60c7ab">
   <rect height="380.52" width="558" x="90" y="60.48"/>
  </clipPath>
 </defs>
</svg>
