<?xml version="1.0" encoding="utf-8" standalone="no"?>
<!DOCTYPE svg PUBLIC "-//W3C//DTD SVG 1.1//EN"
  "http://www.w3.org/Graphics/SVG/1.1/DTD/svg11.dtd">
<!-- Created with matplotlib (https://matplotlib.org/) -->
<svg height="504pt" version="1.1" viewBox="0 0 720 504" width="720pt" xmlns="http://www.w3.org/2000/svg" xmlns:xlink="http://www.w3.org/1999/xlink">
 <defs>
  <style type="text/css">
*{stroke-linecap:butt;stroke-linejoin:round;}
  </style>
 </defs>
 <g id="figure_1">
  <g id="patch_1">
   <path d="M 0 504 
L 720 504 
L 720 0 
L 0 0 
z
" style="fill:#ffffff;"/>
  </g>
  <g id="axes_1">
   <g id="patch_2">
    <path d="M 90 441 
L 648 441 
L 648 60.48 
L 90 60.48 
z
" style="fill:#ffffff;"/>
   </g>
   <g id="matplotlib.axis_1">
    <g id="xtick_1">
     <g id="line2d_1">
      <defs>
       <path d="M 0 0 
L 0 3.5 
" id="meec18200f7" style="stroke:#000000;stroke-width:0.8;"/>
      </defs>
      <g>
       <use style="stroke:#000000;stroke-width:0.8;" x="115.363636" xlink:href="#meec18200f7" y="441"/>
      </g>
     </g>
     <g id="text_1">
      <!-- 0 -->
      <defs>
       <path d="M 31.78125 66.40625 
Q 24.171875 66.40625 20.328125 58.90625 
Q 16.5 51.421875 16.5 36.375 
Q 16.5 21.390625 20.328125 13.890625 
Q 24.171875 6.390625 31.78125 6.390625 
Q 39.453125 6.390625 43.28125 13.890625 
Q 47.125 21.390625 47.125 36.375 
Q 47.125 51.421875 43.28125 58.90625 
Q 39.453125 66.40625 31.78125 66.40625 
z
M 31.78125 74.21875 
Q 44.046875 74.21875 50.515625 64.515625 
Q 56.984375 54.828125 56.984375 36.375 
Q 56.984375 17.96875 50.515625 8.265625 
Q 44.046875 -1.421875 31.78125 -1.421875 
Q 19.53125 -1.421875 13.0625 8.265625 
Q 6.59375 17.96875 6.59375 36.375 
Q 6.59375 54.828125 13.0625 64.515625 
Q 19.53125 74.21875 31.78125 74.21875 
z
" id="DejaVuSans-48"/>
      </defs>
      <g transform="translate(107.410511 466.996094)scale(0.25 -0.25)">
       <use xlink:href="#DejaVuSans-48"/>
      </g>
     </g>
    </g>
    <g id="xtick_2">
     <g id="line2d_2">
      <g>
       <use style="stroke:#000000;stroke-width:0.8;" x="205.305609" xlink:href="#meec18200f7" y="441"/>
      </g>
     </g>
     <g id="text_2">
      <!-- 100 -->
      <defs>
       <path d="M 12.40625 8.296875 
L 28.515625 8.296875 
L 28.515625 63.921875 
L 10.984375 60.40625 
L 10.984375 69.390625 
L 28.421875 72.90625 
L 38.28125 72.90625 
L 38.28125 8.296875 
L 54.390625 8.296875 
L 54.390625 0 
L 12.40625 0 
z
" id="DejaVuSans-49"/>
      </defs>
      <g transform="translate(181.446234 466.996094)scale(0.25 -0.25)">
       <use xlink:href="#DejaVuSans-49"/>
       <use x="63.623047" xlink:href="#DejaVuSans-48"/>
       <use x="127.246094" xlink:href="#DejaVuSans-48"/>
      </g>
     </g>
    </g>
    <g id="xtick_3">
     <g id="line2d_3">
      <g>
       <use style="stroke:#000000;stroke-width:0.8;" x="295.247582" xlink:href="#meec18200f7" y="441"/>
      </g>
     </g>
     <g id="text_3">
      <!-- 200 -->
      <defs>
       <path d="M 19.1875 8.296875 
L 53.609375 8.296875 
L 53.609375 0 
L 7.328125 0 
L 7.328125 8.296875 
Q 12.9375 14.109375 22.625 23.890625 
Q 32.328125 33.6875 34.8125 36.53125 
Q 39.546875 41.84375 41.421875 45.53125 
Q 43.3125 49.21875 43.3125 52.78125 
Q 43.3125 58.59375 39.234375 62.25 
Q 35.15625 65.921875 28.609375 65.921875 
Q 23.96875 65.921875 18.8125 64.3125 
Q 13.671875 62.703125 7.8125 59.421875 
L 7.8125 69.390625 
Q 13.765625 71.78125 18.9375 73 
Q 24.125 74.21875 28.421875 74.21875 
Q 39.75 74.21875 46.484375 68.546875 
Q 53.21875 62.890625 53.21875 53.421875 
Q 53.21875 48.921875 51.53125 44.890625 
Q 49.859375 40.875 45.40625 35.40625 
Q 44.1875 33.984375 37.640625 27.21875 
Q 31.109375 20.453125 19.1875 8.296875 
z
" id="DejaVuSans-50"/>
      </defs>
      <g transform="translate(271.388207 466.996094)scale(0.25 -0.25)">
       <use xlink:href="#DejaVuSans-50"/>
       <use x="63.623047" xlink:href="#DejaVuSans-48"/>
       <use x="127.246094" xlink:href="#DejaVuSans-48"/>
      </g>
     </g>
    </g>
    <g id="xtick_4">
     <g id="line2d_4">
      <g>
       <use style="stroke:#000000;stroke-width:0.8;" x="385.189555" xlink:href="#meec18200f7" y="441"/>
      </g>
     </g>
     <g id="text_4">
      <!-- 300 -->
      <defs>
       <path d="M 40.578125 39.3125 
Q 47.65625 37.796875 51.625 33 
Q 55.609375 28.21875 55.609375 21.1875 
Q 55.609375 10.40625 48.1875 4.484375 
Q 40.765625 -1.421875 27.09375 -1.421875 
Q 22.515625 -1.421875 17.65625 -0.515625 
Q 12.796875 0.390625 7.625 2.203125 
L 7.625 11.71875 
Q 11.71875 9.328125 16.59375 8.109375 
Q 21.484375 6.890625 26.8125 6.890625 
Q 36.078125 6.890625 40.9375 10.546875 
Q 45.796875 14.203125 45.796875 21.1875 
Q 45.796875 27.640625 41.28125 31.265625 
Q 36.765625 34.90625 28.71875 34.90625 
L 20.21875 34.90625 
L 20.21875 43.015625 
L 29.109375 43.015625 
Q 36.375 43.015625 40.234375 45.921875 
Q 44.09375 48.828125 44.09375 54.296875 
Q 44.09375 59.90625 40.109375 62.90625 
Q 36.140625 65.921875 28.71875 65.921875 
Q 24.65625 65.921875 20.015625 65.03125 
Q 15.375 64.15625 9.8125 62.3125 
L 9.8125 71.09375 
Q 15.4375 72.65625 20.34375 73.4375 
Q 25.25 74.21875 29.59375 74.21875 
Q 40.828125 74.21875 47.359375 69.109375 
Q 53.90625 64.015625 53.90625 55.328125 
Q 53.90625 49.265625 50.4375 45.09375 
Q 46.96875 40.921875 40.578125 39.3125 
z
" id="DejaVuSans-51"/>
      </defs>
      <g transform="translate(361.33018 466.996094)scale(0.25 -0.25)">
       <use xlink:href="#DejaVuSans-51"/>
       <use x="63.623047" xlink:href="#DejaVuSans-48"/>
       <use x="127.246094" xlink:href="#DejaVuSans-48"/>
      </g>
     </g>
    </g>
    <g id="xtick_5">
     <g id="line2d_5">
      <g>
       <use style="stroke:#000000;stroke-width:0.8;" x="475.131528" xlink:href="#meec18200f7" y="441"/>
      </g>
     </g>
     <g id="text_5">
      <!-- 400 -->
      <defs>
       <path d="M 37.796875 64.3125 
L 12.890625 25.390625 
L 37.796875 25.390625 
z
M 35.203125 72.90625 
L 47.609375 72.90625 
L 47.609375 25.390625 
L 58.015625 25.390625 
L 58.015625 17.1875 
L 47.609375 17.1875 
L 47.609375 0 
L 37.796875 0 
L 37.796875 17.1875 
L 4.890625 17.1875 
L 4.890625 26.703125 
z
" id="DejaVuSans-52"/>
      </defs>
      <g transform="translate(451.272153 466.996094)scale(0.25 -0.25)">
       <use xlink:href="#DejaVuSans-52"/>
       <use x="63.623047" xlink:href="#DejaVuSans-48"/>
       <use x="127.246094" xlink:href="#DejaVuSans-48"/>
      </g>
     </g>
    </g>
    <g id="xtick_6">
     <g id="line2d_6">
      <g>
       <use style="stroke:#000000;stroke-width:0.8;" x="565.073501" xlink:href="#meec18200f7" y="441"/>
      </g>
     </g>
     <g id="text_6">
      <!-- 500 -->
      <defs>
       <path d="M 10.796875 72.90625 
L 49.515625 72.90625 
L 49.515625 64.59375 
L 19.828125 64.59375 
L 19.828125 46.734375 
Q 21.96875 47.46875 24.109375 47.828125 
Q 26.265625 48.1875 28.421875 48.1875 
Q 40.625 48.1875 47.75 41.5 
Q 54.890625 34.8125 54.890625 23.390625 
Q 54.890625 11.625 47.5625 5.09375 
Q 40.234375 -1.421875 26.90625 -1.421875 
Q 22.3125 -1.421875 17.546875 -0.640625 
Q 12.796875 0.140625 7.71875 1.703125 
L 7.71875 11.625 
Q 12.109375 9.234375 16.796875 8.0625 
Q 21.484375 6.890625 26.703125 6.890625 
Q 35.15625 6.890625 40.078125 11.328125 
Q 45.015625 15.765625 45.015625 23.390625 
Q 45.015625 31 40.078125 35.4375 
Q 35.15625 39.890625 26.703125 39.890625 
Q 22.75 39.890625 18.8125 39.015625 
Q 14.890625 38.140625 10.796875 36.28125 
z
" id="DejaVuSans-53"/>
      </defs>
      <g transform="translate(541.214126 466.996094)scale(0.25 -0.25)">
       <use xlink:href="#DejaVuSans-53"/>
       <use x="63.623047" xlink:href="#DejaVuSans-48"/>
       <use x="127.246094" xlink:href="#DejaVuSans-48"/>
      </g>
     </g>
    </g>
    <g id="text_7">
     <!-- Tip of tail fiber sequence (bp) -->
     <defs>
      <path d="M 0.484375 72.90625 
L 67.671875 72.90625 
L 67.671875 58.6875 
L 43.5 58.6875 
L 43.5 0 
L 24.703125 0 
L 24.703125 58.6875 
L 0.484375 58.6875 
z
" id="DejaVuSans-Bold-84"/>
      <path d="M 8.40625 54.6875 
L 25.875 54.6875 
L 25.875 0 
L 8.40625 0 
z
M 8.40625 75.984375 
L 25.875 75.984375 
L 25.875 61.71875 
L 8.40625 61.71875 
z
" id="DejaVuSans-Bold-105"/>
      <path d="M 25.875 7.90625 
L 25.875 -20.796875 
L 8.40625 -20.796875 
L 8.40625 54.6875 
L 25.875 54.6875 
L 25.875 46.6875 
Q 29.5 51.46875 33.890625 53.734375 
Q 38.28125 56 44 56 
Q 54.109375 56 60.59375 47.96875 
Q 67.09375 39.9375 67.09375 27.296875 
Q 67.09375 14.65625 60.59375 6.609375 
Q 54.109375 -1.421875 44 -1.421875 
Q 38.28125 -1.421875 33.890625 0.84375 
Q 29.5 3.125 25.875 7.90625 
z
M 37.5 43.3125 
Q 31.890625 43.3125 28.875 39.1875 
Q 25.875 35.0625 25.875 27.296875 
Q 25.875 19.53125 28.875 15.40625 
Q 31.890625 11.28125 37.5 11.28125 
Q 43.109375 11.28125 46.0625 15.375 
Q 49.03125 19.484375 49.03125 27.296875 
Q 49.03125 35.109375 46.0625 39.203125 
Q 43.109375 43.3125 37.5 43.3125 
z
" id="DejaVuSans-Bold-112"/>
      <path id="DejaVuSans-Bold-32"/>
      <path d="M 34.421875 43.5 
Q 28.609375 43.5 25.5625 39.328125 
Q 22.515625 35.15625 22.515625 27.296875 
Q 22.515625 19.4375 25.5625 15.25 
Q 28.609375 11.078125 34.421875 11.078125 
Q 40.140625 11.078125 43.15625 15.25 
Q 46.1875 19.4375 46.1875 27.296875 
Q 46.1875 35.15625 43.15625 39.328125 
Q 40.140625 43.5 34.421875 43.5 
z
M 34.421875 56 
Q 48.53125 56 56.46875 48.375 
Q 64.40625 40.765625 64.40625 27.296875 
Q 64.40625 13.8125 56.46875 6.1875 
Q 48.53125 -1.421875 34.421875 -1.421875 
Q 20.265625 -1.421875 12.28125 6.1875 
Q 4.296875 13.8125 4.296875 27.296875 
Q 4.296875 40.765625 12.28125 48.375 
Q 20.265625 56 34.421875 56 
z
" id="DejaVuSans-Bold-111"/>
      <path d="M 44.390625 75.984375 
L 44.390625 64.5 
L 34.71875 64.5 
Q 31 64.5 29.53125 63.15625 
Q 28.078125 61.8125 28.078125 58.5 
L 28.078125 54.6875 
L 43.015625 54.6875 
L 43.015625 42.1875 
L 28.078125 42.1875 
L 28.078125 0 
L 10.59375 0 
L 10.59375 42.1875 
L 1.90625 42.1875 
L 1.90625 54.6875 
L 10.59375 54.6875 
L 10.59375 58.5 
Q 10.59375 67.4375 15.578125 71.703125 
Q 20.5625 75.984375 31 75.984375 
z
" id="DejaVuSans-Bold-102"/>
      <path d="M 27.484375 70.21875 
L 27.484375 54.6875 
L 45.515625 54.6875 
L 45.515625 42.1875 
L 27.484375 42.1875 
L 27.484375 19 
Q 27.484375 15.1875 29 13.84375 
Q 30.515625 12.5 35.015625 12.5 
L 44 12.5 
L 44 0 
L 29 0 
Q 18.65625 0 14.328125 4.3125 
Q 10.015625 8.640625 10.015625 19 
L 10.015625 42.1875 
L 1.3125 42.1875 
L 1.3125 54.6875 
L 10.015625 54.6875 
L 10.015625 70.21875 
z
" id="DejaVuSans-Bold-116"/>
      <path d="M 32.90625 24.609375 
Q 27.4375 24.609375 24.671875 22.75 
Q 21.921875 20.90625 21.921875 17.28125 
Q 21.921875 13.96875 24.140625 12.078125 
Q 26.375 10.203125 30.328125 10.203125 
Q 35.25 10.203125 38.625 13.734375 
Q 42 17.28125 42 22.609375 
L 42 24.609375 
z
M 59.625 31.203125 
L 59.625 0 
L 42 0 
L 42 8.109375 
Q 38.484375 3.125 34.078125 0.84375 
Q 29.6875 -1.421875 23.390625 -1.421875 
Q 14.890625 -1.421875 9.59375 3.53125 
Q 4.296875 8.5 4.296875 16.40625 
Q 4.296875 26.03125 10.90625 30.515625 
Q 17.53125 35.015625 31.6875 35.015625 
L 42 35.015625 
L 42 36.375 
Q 42 40.53125 38.71875 42.453125 
Q 35.453125 44.390625 28.515625 44.390625 
Q 22.90625 44.390625 18.0625 43.265625 
Q 13.234375 42.140625 9.078125 39.890625 
L 9.078125 53.21875 
Q 14.703125 54.59375 20.359375 55.296875 
Q 26.03125 56 31.6875 56 
Q 46.484375 56 53.046875 50.171875 
Q 59.625 44.34375 59.625 31.203125 
z
" id="DejaVuSans-Bold-97"/>
      <path d="M 8.40625 75.984375 
L 25.875 75.984375 
L 25.875 0 
L 8.40625 0 
z
" id="DejaVuSans-Bold-108"/>
      <path d="M 37.5 11.28125 
Q 43.109375 11.28125 46.0625 15.375 
Q 49.03125 19.484375 49.03125 27.296875 
Q 49.03125 35.109375 46.0625 39.203125 
Q 43.109375 43.3125 37.5 43.3125 
Q 31.890625 43.3125 28.875 39.1875 
Q 25.875 35.0625 25.875 27.296875 
Q 25.875 19.53125 28.875 15.40625 
Q 31.890625 11.28125 37.5 11.28125 
z
M 25.875 46.6875 
Q 29.5 51.46875 33.890625 53.734375 
Q 38.28125 56 44 56 
Q 54.109375 56 60.59375 47.96875 
Q 67.09375 39.9375 67.09375 27.296875 
Q 67.09375 14.65625 60.59375 6.609375 
Q 54.109375 -1.421875 44 -1.421875 
Q 38.28125 -1.421875 33.890625 0.84375 
Q 29.5 3.125 25.875 7.90625 
L 25.875 0 
L 8.40625 0 
L 8.40625 75.984375 
L 25.875 75.984375 
z
" id="DejaVuSans-Bold-98"/>
      <path d="M 62.984375 27.484375 
L 62.984375 22.515625 
L 22.125 22.515625 
Q 22.75 16.359375 26.5625 13.28125 
Q 30.375 10.203125 37.203125 10.203125 
Q 42.71875 10.203125 48.5 11.84375 
Q 54.296875 13.484375 60.40625 16.796875 
L 60.40625 3.328125 
Q 54.203125 0.984375 48 -0.21875 
Q 41.796875 -1.421875 35.59375 -1.421875 
Q 20.75 -1.421875 12.515625 6.125 
Q 4.296875 13.671875 4.296875 27.296875 
Q 4.296875 40.671875 12.375 48.328125 
Q 20.453125 56 34.625 56 
Q 47.515625 56 55.25 48.234375 
Q 62.984375 40.484375 62.984375 27.484375 
z
M 45.015625 33.296875 
Q 45.015625 38.28125 42.109375 41.328125 
Q 39.203125 44.390625 34.515625 44.390625 
Q 29.4375 44.390625 26.265625 41.53125 
Q 23.09375 38.671875 22.3125 33.296875 
z
" id="DejaVuSans-Bold-101"/>
      <path d="M 49.03125 39.796875 
Q 46.734375 40.875 44.453125 41.375 
Q 42.1875 41.890625 39.890625 41.890625 
Q 33.15625 41.890625 29.515625 37.5625 
Q 25.875 33.25 25.875 25.203125 
L 25.875 0 
L 8.40625 0 
L 8.40625 54.6875 
L 25.875 54.6875 
L 25.875 45.703125 
Q 29.25 51.078125 33.609375 53.53125 
Q 37.984375 56 44.09375 56 
Q 44.96875 56 45.984375 55.921875 
Q 47.015625 55.859375 48.96875 55.609375 
z
" id="DejaVuSans-Bold-114"/>
      <path d="M 51.125 52.984375 
L 51.125 39.703125 
Q 45.515625 42.046875 40.28125 43.21875 
Q 35.0625 44.390625 30.421875 44.390625 
Q 25.4375 44.390625 23.015625 43.140625 
Q 20.609375 41.890625 20.609375 39.3125 
Q 20.609375 37.203125 22.4375 36.078125 
Q 24.265625 34.96875 29 34.421875 
L 32.078125 33.984375 
Q 45.515625 32.28125 50.140625 28.375 
Q 54.78125 24.46875 54.78125 16.109375 
Q 54.78125 7.375 48.328125 2.96875 
Q 41.890625 -1.421875 29.109375 -1.421875 
Q 23.6875 -1.421875 17.890625 -0.5625 
Q 12.109375 0.296875 6 2 
L 6 15.28125 
Q 11.234375 12.75 16.71875 11.46875 
Q 22.21875 10.203125 27.875 10.203125 
Q 33.015625 10.203125 35.59375 11.609375 
Q 38.1875 13.03125 38.1875 15.828125 
Q 38.1875 18.171875 36.40625 19.3125 
Q 34.625 20.453125 29.296875 21.09375 
L 26.21875 21.484375 
Q 14.546875 22.953125 9.859375 26.90625 
Q 5.171875 30.859375 5.171875 38.921875 
Q 5.171875 47.609375 11.125 51.796875 
Q 17.09375 56 29.390625 56 
Q 34.234375 56 39.546875 55.265625 
Q 44.875 54.546875 51.125 52.984375 
z
" id="DejaVuSans-Bold-115"/>
      <path d="M 34.078125 43.3125 
Q 28.515625 43.3125 25.5625 39.203125 
Q 22.609375 35.109375 22.609375 27.296875 
Q 22.609375 19.484375 25.5625 15.375 
Q 28.515625 11.28125 34.078125 11.28125 
Q 39.703125 11.28125 42.65625 15.375 
Q 45.609375 19.484375 45.609375 27.296875 
Q 45.609375 35.109375 42.65625 39.203125 
Q 39.703125 43.3125 34.078125 43.3125 
z
M 45.609375 7.90625 
Q 42 3.078125 37.640625 0.828125 
Q 33.296875 -1.421875 27.59375 -1.421875 
Q 17.484375 -1.421875 10.984375 6.609375 
Q 4.5 14.65625 4.5 27.296875 
Q 4.5 39.9375 10.984375 47.921875 
Q 17.484375 55.90625 27.59375 55.90625 
Q 33.296875 55.90625 37.640625 53.65625 
Q 42 51.421875 45.609375 46.578125 
L 45.609375 54.6875 
L 63.1875 54.6875 
L 63.1875 -20.796875 
L 45.609375 -20.796875 
z
" id="DejaVuSans-Bold-113"/>
      <path d="M 7.8125 21.296875 
L 7.8125 54.6875 
L 25.390625 54.6875 
L 25.390625 49.21875 
Q 25.390625 44.78125 25.34375 38.0625 
Q 25.296875 31.34375 25.296875 29.109375 
Q 25.296875 22.515625 25.640625 19.609375 
Q 25.984375 16.703125 26.8125 15.375 
Q 27.875 13.671875 29.609375 12.734375 
Q 31.34375 11.8125 33.59375 11.8125 
Q 39.0625 11.8125 42.1875 16.015625 
Q 45.3125 20.21875 45.3125 27.6875 
L 45.3125 54.6875 
L 62.796875 54.6875 
L 62.796875 0 
L 45.3125 0 
L 45.3125 7.90625 
Q 41.359375 3.125 36.9375 0.84375 
Q 32.515625 -1.421875 27.203125 -1.421875 
Q 17.71875 -1.421875 12.765625 4.390625 
Q 7.8125 10.203125 7.8125 21.296875 
z
" id="DejaVuSans-Bold-117"/>
      <path d="M 63.375 33.296875 
L 63.375 0 
L 45.796875 0 
L 45.796875 5.421875 
L 45.796875 25.484375 
Q 45.796875 32.5625 45.484375 35.25 
Q 45.171875 37.9375 44.390625 39.203125 
Q 43.359375 40.921875 41.59375 41.875 
Q 39.84375 42.828125 37.59375 42.828125 
Q 32.125 42.828125 29 38.59375 
Q 25.875 34.375 25.875 26.90625 
L 25.875 0 
L 8.40625 0 
L 8.40625 54.6875 
L 25.875 54.6875 
L 25.875 46.6875 
Q 29.828125 51.46875 34.265625 53.734375 
Q 38.71875 56 44.09375 56 
Q 53.5625 56 58.46875 50.1875 
Q 63.375 44.390625 63.375 33.296875 
z
" id="DejaVuSans-Bold-110"/>
      <path d="M 52.59375 52.984375 
L 52.59375 38.71875 
Q 49.03125 41.15625 45.4375 42.328125 
Q 41.84375 43.5 37.984375 43.5 
Q 30.671875 43.5 26.59375 39.234375 
Q 22.515625 34.96875 22.515625 27.296875 
Q 22.515625 19.625 26.59375 15.34375 
Q 30.671875 11.078125 37.984375 11.078125 
Q 42.09375 11.078125 45.78125 12.296875 
Q 49.46875 13.53125 52.59375 15.921875 
L 52.59375 1.609375 
Q 48.484375 0.09375 44.265625 -0.65625 
Q 40.046875 -1.421875 35.796875 -1.421875 
Q 21 -1.421875 12.640625 6.171875 
Q 4.296875 13.765625 4.296875 27.296875 
Q 4.296875 40.828125 12.640625 48.40625 
Q 21 56 35.796875 56 
Q 40.09375 56 44.265625 55.25 
Q 48.4375 54.5 52.59375 52.984375 
z
" id="DejaVuSans-Bold-99"/>
      <path d="M 37.703125 -13.1875 
L 23.1875 -13.1875 
Q 15.71875 -1.125 12.15625 9.734375 
Q 8.59375 20.609375 8.59375 31.296875 
Q 8.59375 42 12.171875 52.953125 
Q 15.765625 63.921875 23.1875 75.875 
L 37.703125 75.875 
Q 31.453125 64.3125 28.328125 53.25 
Q 25.203125 42.1875 25.203125 31.390625 
Q 25.203125 20.609375 28.296875 9.515625 
Q 31.390625 -1.5625 37.703125 -13.1875 
z
" id="DejaVuSans-Bold-40"/>
      <path d="M 8.015625 -13.1875 
Q 14.265625 -1.5625 17.390625 9.515625 
Q 20.515625 20.609375 20.515625 31.390625 
Q 20.515625 42.1875 17.390625 53.25 
Q 14.265625 64.3125 8.015625 75.875 
L 22.515625 75.875 
Q 29.9375 63.921875 33.515625 52.953125 
Q 37.109375 42 37.109375 31.296875 
Q 37.109375 20.609375 33.546875 9.734375 
Q 29.984375 -1.125 22.515625 -13.1875 
z
" id="DejaVuSans-Bold-41"/>
     </defs>
     <g transform="translate(158.814453 495.191406)scale(0.25 -0.25)">
      <use xlink:href="#DejaVuSans-Bold-84"/>
      <use x="68.212891" xlink:href="#DejaVuSans-Bold-105"/>
      <use x="102.490234" xlink:href="#DejaVuSans-Bold-112"/>
      <use x="174.072266" xlink:href="#DejaVuSans-Bold-32"/>
      <use x="208.886719" xlink:href="#DejaVuSans-Bold-111"/>
      <use x="277.587891" xlink:href="#DejaVuSans-Bold-102"/>
      <use x="321.09375" xlink:href="#DejaVuSans-Bold-32"/>
      <use x="355.908203" xlink:href="#DejaVuSans-Bold-116"/>
      <use x="403.710938" xlink:href="#DejaVuSans-Bold-97"/>
      <use x="471.191406" xlink:href="#DejaVuSans-Bold-105"/>
      <use x="505.46875" xlink:href="#DejaVuSans-Bold-108"/>
      <use x="539.746094" xlink:href="#DejaVuSans-Bold-32"/>
      <use x="574.560547" xlink:href="#DejaVuSans-Bold-102"/>
      <use x="618.066406" xlink:href="#DejaVuSans-Bold-105"/>
      <use x="652.34375" xlink:href="#DejaVuSans-Bold-98"/>
      <use x="723.925781" xlink:href="#DejaVuSans-Bold-101"/>
      <use x="791.748047" xlink:href="#DejaVuSans-Bold-114"/>
      <use x="841.064453" xlink:href="#DejaVuSans-Bold-32"/>
      <use x="875.878906" xlink:href="#DejaVuSans-Bold-115"/>
      <use x="935.400391" xlink:href="#DejaVuSans-Bold-101"/>
      <use x="1003.222656" xlink:href="#DejaVuSans-Bold-113"/>
      <use x="1074.804688" xlink:href="#DejaVuSans-Bold-117"/>
      <use x="1145.996094" xlink:href="#DejaVuSans-Bold-101"/>
      <use x="1213.818359" xlink:href="#DejaVuSans-Bold-110"/>
      <use x="1285.009766" xlink:href="#DejaVuSans-Bold-99"/>
      <use x="1344.287109" xlink:href="#DejaVuSans-Bold-101"/>
      <use x="1412.109375" xlink:href="#DejaVuSans-Bold-32"/>
      <use x="1446.923828" xlink:href="#DejaVuSans-Bold-40"/>
      <use x="1492.626953" xlink:href="#DejaVuSans-Bold-98"/>
      <use x="1564.208984" xlink:href="#DejaVuSans-Bold-112"/>
      <use x="1635.791016" xlink:href="#DejaVuSans-Bold-41"/>
     </g>
    </g>
   </g>
   <g id="matplotlib.axis_2">
    <g id="ytick_1">
     <g id="line2d_7">
      <defs>
       <path d="M 0 0 
L -3.5 0 
" id="m37b45613f1" style="stroke:#000000;stroke-width:0.8;"/>
      </defs>
      <g>
       <use style="stroke:#000000;stroke-width:0.8;" x="90" xlink:href="#m37b45613f1" y="441"/>
      </g>
     </g>
     <g id="text_8">
      <!-- 0.000 -->
      <defs>
       <path d="M 10.6875 12.40625 
L 21 12.40625 
L 21 0 
L 10.6875 0 
z
" id="DejaVuSans-46"/>
      </defs>
      <g transform="translate(11.429688 450.498047)scale(0.25 -0.25)">
       <use xlink:href="#DejaVuSans-48"/>
       <use x="63.623047" xlink:href="#DejaVuSans-46"/>
       <use x="95.410156" xlink:href="#DejaVuSans-48"/>
       <use x="159.033203" xlink:href="#DejaVuSans-48"/>
       <use x="222.65625" xlink:href="#DejaVuSans-48"/>
      </g>
     </g>
    </g>
    <g id="ytick_2">
     <g id="line2d_8">
      <g>
       <use style="stroke:#000000;stroke-width:0.8;" x="90" xlink:href="#m37b45613f1" y="345.87"/>
      </g>
     </g>
     <g id="text_9">
      <!-- 0.005 -->
      <g transform="translate(11.429688 355.368047)scale(0.25 -0.25)">
       <use xlink:href="#DejaVuSans-48"/>
       <use x="63.623047" xlink:href="#DejaVuSans-46"/>
       <use x="95.410156" xlink:href="#DejaVuSans-48"/>
       <use x="159.033203" xlink:href="#DejaVuSans-48"/>
       <use x="222.65625" xlink:href="#DejaVuSans-53"/>
      </g>
     </g>
    </g>
    <g id="ytick_3">
     <g id="line2d_9">
      <g>
       <use style="stroke:#000000;stroke-width:0.8;" x="90" xlink:href="#m37b45613f1" y="250.74"/>
      </g>
     </g>
     <g id="text_10">
      <!-- 0.010 -->
      <g transform="translate(11.429688 260.238047)scale(0.25 -0.25)">
       <use xlink:href="#DejaVuSans-48"/>
       <use x="63.623047" xlink:href="#DejaVuSans-46"/>
       <use x="95.410156" xlink:href="#DejaVuSans-48"/>
       <use x="159.033203" xlink:href="#DejaVuSans-49"/>
       <use x="222.65625" xlink:href="#DejaVuSans-48"/>
      </g>
     </g>
    </g>
    <g id="ytick_4">
     <g id="line2d_10">
      <g>
       <use style="stroke:#000000;stroke-width:0.8;" x="90" xlink:href="#m37b45613f1" y="155.61"/>
      </g>
     </g>
     <g id="text_11">
      <!-- 0.015 -->
      <g transform="translate(11.429688 165.108047)scale(0.25 -0.25)">
       <use xlink:href="#DejaVuSans-48"/>
       <use x="63.623047" xlink:href="#DejaVuSans-46"/>
       <use x="95.410156" xlink:href="#DejaVuSans-48"/>
       <use x="159.033203" xlink:href="#DejaVuSans-49"/>
       <use x="222.65625" xlink:href="#DejaVuSans-53"/>
      </g>
     </g>
    </g>
    <g id="ytick_5">
     <g id="line2d_11">
      <g>
       <use style="stroke:#000000;stroke-width:0.8;" x="90" xlink:href="#m37b45613f1" y="60.48"/>
      </g>
     </g>
     <g id="text_12">
      <!-- 0.020 -->
      <g transform="translate(11.429688 69.978047)scale(0.25 -0.25)">
       <use xlink:href="#DejaVuSans-48"/>
       <use x="63.623047" xlink:href="#DejaVuSans-46"/>
       <use x="95.410156" xlink:href="#DejaVuSans-48"/>
       <use x="159.033203" xlink:href="#DejaVuSans-50"/>
       <use x="222.65625" xlink:href="#DejaVuSans-48"/>
      </g>
     </g>
    </g>
    <g id="text_13">
     <!-- mutation frequency -->
     <defs>
      <path d="M 59.078125 45.609375 
Q 62.40625 50.6875 66.96875 53.34375 
Q 71.53125 56 77 56 
Q 86.421875 56 91.359375 50.1875 
Q 96.296875 44.390625 96.296875 33.296875 
L 96.296875 0 
L 78.71875 0 
L 78.71875 28.515625 
Q 78.765625 29.15625 78.78125 29.828125 
Q 78.8125 30.515625 78.8125 31.78125 
Q 78.8125 37.59375 77.09375 40.203125 
Q 75.390625 42.828125 71.578125 42.828125 
Q 66.609375 42.828125 63.890625 38.71875 
Q 61.1875 34.625 61.078125 26.859375 
L 61.078125 0 
L 43.5 0 
L 43.5 28.515625 
Q 43.5 37.59375 41.9375 40.203125 
Q 40.375 42.828125 36.375 42.828125 
Q 31.34375 42.828125 28.609375 38.703125 
Q 25.875 34.578125 25.875 26.90625 
L 25.875 0 
L 8.296875 0 
L 8.296875 54.6875 
L 25.875 54.6875 
L 25.875 46.6875 
Q 29.109375 51.3125 33.28125 53.65625 
Q 37.453125 56 42.484375 56 
Q 48.140625 56 52.484375 53.265625 
Q 56.84375 50.53125 59.078125 45.609375 
z
" id="DejaVuSans-Bold-109"/>
      <path d="M 1.21875 54.6875 
L 18.703125 54.6875 
L 33.40625 17.578125 
L 45.90625 54.6875 
L 63.375 54.6875 
L 40.375 -5.171875 
Q 36.921875 -14.3125 32.296875 -17.9375 
Q 27.6875 -21.578125 20.125 -21.578125 
L 10.015625 -21.578125 
L 10.015625 -10.109375 
L 15.484375 -10.109375 
Q 19.921875 -10.109375 21.9375 -8.6875 
Q 23.96875 -7.28125 25.09375 -3.609375 
L 25.59375 -2.09375 
z
" id="DejaVuSans-Bold-121"/>
     </defs>
     <g transform="translate(2.035156 390.032969)rotate(-90)scale(0.25 -0.25)">
      <use xlink:href="#DejaVuSans-Bold-109"/>
      <use x="104.199219" xlink:href="#DejaVuSans-Bold-117"/>
      <use x="175.390625" xlink:href="#DejaVuSans-Bold-116"/>
      <use x="223.193359" xlink:href="#DejaVuSans-Bold-97"/>
      <use x="290.673828" xlink:href="#DejaVuSans-Bold-116"/>
      <use x="338.476562" xlink:href="#DejaVuSans-Bold-105"/>
      <use x="372.753906" xlink:href="#DejaVuSans-Bold-111"/>
      <use x="441.455078" xlink:href="#DejaVuSans-Bold-110"/>
      <use x="512.646484" xlink:href="#DejaVuSans-Bold-32"/>
      <use x="547.460938" xlink:href="#DejaVuSans-Bold-102"/>
      <use x="590.966797" xlink:href="#DejaVuSans-Bold-114"/>
      <use x="640.283203" xlink:href="#DejaVuSans-Bold-101"/>
      <use x="708.105469" xlink:href="#DejaVuSans-Bold-113"/>
      <use x="779.6875" xlink:href="#DejaVuSans-Bold-117"/>
      <use x="850.878906" xlink:href="#DejaVuSans-Bold-101"/>
      <use x="918.701172" xlink:href="#DejaVuSans-Bold-110"/>
      <use x="989.892578" xlink:href="#DejaVuSans-Bold-99"/>
      <use x="1049.169922" xlink:href="#DejaVuSans-Bold-121"/>
     </g>
    </g>
   </g>
   <g id="line2d_12">
    <path clip-path="url(#p330501c0e2)" d="M 115.363636 434.725811 
L 116.263056 437.830999 
L 117.162476 435.169033 
L 118.061896 435.48331 
L 118.961315 436.478707 
L 119.860735 434.599695 
L 120.760155 438.20877 
L 121.659574 438.329927 
L 122.558994 436.264183 
L 123.458414 438.036516 
L 124.357834 437.470243 
L 125.257253 436.276183 
L 126.156673 437.077959 
L 127.056093 438.670384 
L 127.955513 437.067558 
L 128.854932 436.400836 
L 129.754352 437.414371 
L 130.653772 438.654437 
L 131.553191 436.018814 
L 132.452611 437.510729 
L 133.352031 438.173918 
L 134.251451 437.403363 
L 135.15087 433.499409 
L 136.05029 436.929945 
L 136.94971 437.80301 
L 138.748549 421.939709 
L 139.647969 436.746234 
L 140.547389 438.71095 
L 141.446809 436.534255 
L 142.346228 437.231398 
L 144.145068 434.529449 
L 145.044487 435.422484 
L 146.843327 436.188971 
L 147.742747 437.981495 
L 148.642166 436.446688 
L 149.541586 436.475052 
L 150.441006 438.365622 
L 151.340426 436.188808 
L 152.239845 435.911179 
L 153.139265 436.240905 
L 154.038685 435.633159 
L 154.938104 435.890212 
L 155.837524 437.602036 
L 156.736944 437.195009 
L 157.636364 437.299525 
L 158.535783 435.001401 
L 159.435203 434.132514 
L 160.334623 435.594329 
L 161.234043 436.097664 
L 162.133462 435.822687 
L 163.032882 437.089834 
L 163.932302 436.096174 
L 164.831721 432.848934 
L 165.731141 430.902561 
L 166.630561 431.563897 
L 167.529981 436.304041 
L 168.4294 436.030721 
L 169.32882 431.845311 
L 170.22824 435.610284 
L 171.12766 435.395764 
L 172.027079 438.258462 
L 172.926499 437.948466 
L 173.825919 436.394077 
L 174.725338 437.472903 
L 175.624758 436.341377 
L 176.524178 435.978983 
L 177.423598 438.035277 
L 178.323017 436.712609 
L 179.222437 437.041106 
L 180.121857 437.020474 
L 181.021277 434.110621 
L 181.920696 436.837813 
L 182.820116 437.027084 
L 183.719536 435.136299 
L 185.518375 437.044348 
L 186.417795 436.855268 
L 187.317215 434.933699 
L 188.216634 436.634831 
L 189.116054 436.834592 
L 190.015474 436.108039 
L 190.914894 436.312994 
L 191.814313 430.330526 
L 193.613153 438.552354 
L 194.512573 435.42355 
L 195.411992 436.792847 
L 196.311412 435.307002 
L 198.110251 436.712166 
L 199.909091 436.224938 
L 200.808511 437.021064 
L 201.70793 435.85176 
L 202.60735 437.682083 
L 203.50677 436.515703 
L 204.40619 436.132978 
L 205.305609 436.079233 
L 206.205029 435.046196 
L 207.104449 436.952959 
L 208.003868 435.353026 
L 208.903288 435.023018 
L 209.802708 435.008505 
L 210.702128 437.665631 
L 211.601547 437.222302 
L 212.500967 436.963431 
L 213.400387 437.905273 
L 214.299807 435.181111 
L 215.199226 437.208284 
L 216.098646 436.367765 
L 216.998066 437.216625 
L 218.796905 434.56195 
L 219.696325 434.476955 
L 220.595745 435.785139 
L 221.495164 436.316725 
L 222.394584 437.637674 
L 223.294004 436.910786 
L 224.193424 434.644193 
L 225.092843 436.925221 
L 225.992263 435.874637 
L 226.891683 432.320053 
L 227.791103 436.701861 
L 228.690522 437.480936 
L 229.589942 437.604557 
L 230.489362 436.059777 
L 231.388781 435.430374 
L 232.288201 435.722376 
L 233.187621 434.164173 
L 234.087041 434.33011 
L 234.98646 436.722051 
L 235.88588 430.964622 
L 236.7853 436.663162 
L 237.68472 437.535068 
L 239.483559 436.7753 
L 240.382979 437.256922 
L 241.282398 434.546 
L 242.181818 436.491525 
L 243.081238 436.581092 
L 243.980658 435.568771 
L 244.880077 435.52896 
L 245.779497 436.789038 
L 246.678917 436.783848 
L 247.578337 439.158421 
L 248.477756 436.902654 
L 249.377176 436.165377 
L 250.276596 436.343297 
L 251.176015 433.626401 
L 252.075435 435.649778 
L 252.974855 436.2221 
L 253.874275 435.169066 
L 254.773694 436.496042 
L 255.673114 436.383476 
L 256.572534 435.923585 
L 257.471954 434.154329 
L 258.371373 435.127775 
L 259.270793 435.455968 
L 260.170213 436.666128 
L 261.069632 435.194094 
L 261.969052 432.205285 
L 262.868472 436.577977 
L 263.767892 433.949921 
L 264.667311 435.993618 
L 265.566731 437.203322 
L 266.466151 434.770686 
L 267.365571 436.264657 
L 268.26499 433.993523 
L 269.16441 433.174464 
L 270.06383 429.492164 
L 270.96325 434.023432 
L 271.862669 431.190765 
L 272.762089 436.392042 
L 273.661509 437.33274 
L 274.560928 433.112283 
L 275.460348 436.756045 
L 276.359768 435.516581 
L 277.259188 434.49995 
L 278.158607 435.917305 
L 279.058027 433.145009 
L 279.957447 436.286944 
L 280.856867 438.459406 
L 281.756286 436.170415 
L 282.655706 436.51682 
L 283.555126 437.721573 
L 284.454545 436.488041 
L 286.253385 434.795602 
L 287.152805 435.535569 
L 288.052224 434.398653 
L 288.951644 436.518584 
L 289.851064 433.363192 
L 290.750484 437.012297 
L 291.649903 436.760969 
L 292.549323 438.424695 
L 293.448743 433.526996 
L 294.348162 436.957502 
L 295.247582 435.654128 
L 296.147002 437.968641 
L 297.046422 433.077294 
L 297.945841 432.815536 
L 298.845261 426.987216 
L 300.644101 432.358724 
L 301.54352 433.786943 
L 302.44294 437.291966 
L 303.34236 435.069889 
L 304.241779 432.540797 
L 305.141199 437.866142 
L 306.040619 435.059329 
L 306.940039 434.419192 
L 307.839458 436.747021 
L 308.738878 436.456327 
L 309.638298 433.858627 
L 310.537718 432.620674 
L 311.437137 434.286195 
L 312.336557 434.288828 
L 313.235977 435.606926 
L 314.135397 435.448814 
L 315.034816 435.102777 
L 315.934236 436.950873 
L 316.833656 437.150536 
L 317.733075 437.173921 
L 318.632495 436.085063 
L 319.531915 435.985332 
L 320.431335 437.360591 
L 321.330754 435.055193 
L 322.230174 436.397424 
L 323.129594 437.374512 
L 324.928433 433.830355 
L 325.827853 437.340572 
L 326.727273 428.955642 
L 327.626692 435.760554 
L 328.526112 436.139498 
L 329.425532 435.703618 
L 330.324952 435.87329 
L 331.224371 437.845809 
L 332.123791 437.683977 
L 333.023211 435.48714 
L 333.922631 436.740969 
L 334.82205 435.943827 
L 335.72147 437.655853 
L 336.62089 434.905847 
L 337.520309 435.974033 
L 338.419729 434.717206 
L 339.319149 434.061458 
L 340.218569 437.142766 
L 341.117988 437.261859 
L 342.017408 437.608782 
L 342.916828 435.856758 
L 343.816248 436.739689 
L 344.715667 430.310158 
L 345.615087 436.551072 
L 346.514507 434.21498 
L 347.413926 437.086698 
L 348.313346 436.149382 
L 349.212766 435.720725 
L 350.112186 434.08754 
L 351.011605 438.282123 
L 351.911025 435.446727 
L 352.810445 437.722492 
L 353.709865 436.4258 
L 354.609284 437.3851 
L 355.508704 437.762045 
L 356.408124 436.386283 
L 357.307544 434.032228 
L 358.206963 437.749128 
L 359.106383 438.874925 
L 360.005803 436.728066 
L 361.804642 436.672392 
L 362.704062 436.316973 
L 363.603482 438.407662 
L 364.502901 436.245795 
L 365.402321 436.739087 
L 366.301741 436.272144 
L 367.201161 436.325527 
L 368.10058 438.746665 
L 369 436.433159 
L 369.89942 436.048027 
L 370.798839 438.169785 
L 371.698259 437.425509 
L 372.597679 436.473848 
L 373.497099 437.808259 
L 374.396518 437.680725 
L 375.295938 434.693389 
L 376.195358 437.47041 
L 377.094778 431.809422 
L 378.893617 438.266148 
L 379.793037 437.850451 
L 380.692456 434.167274 
L 381.591876 433.665719 
L 382.491296 435.142298 
L 383.390716 437.52281 
L 384.290135 438.106861 
L 385.189555 436.962171 
L 386.988395 438.132803 
L 387.887814 436.74993 
L 388.787234 434.917374 
L 389.686654 436.712148 
L 390.586074 433.941832 
L 391.485493 435.440553 
L 392.384913 437.523406 
L 393.284333 434.040186 
L 394.183752 437.035206 
L 395.083172 435.040819 
L 395.982592 436.052966 
L 396.882012 435.873374 
L 397.781431 434.65732 
L 398.680851 426.564498 
L 399.580271 436.453667 
L 400.479691 416.534908 
L 401.37911 435.256239 
L 402.27853 438.362871 
L 403.17795 436.157286 
L 404.077369 437.170047 
L 404.976789 437.162675 
L 405.876209 434.133977 
L 406.775629 434.896904 
L 407.675048 433.051717 
L 408.574468 436.30906 
L 409.473888 437.316483 
L 410.373308 436.290407 
L 411.272727 437.818507 
L 412.172147 435.322862 
L 413.071567 431.525421 
L 413.970986 431.260623 
L 414.870406 435.549022 
L 415.769826 434.437645 
L 416.669246 438.316061 
L 417.568665 438.059437 
L 418.468085 437.233501 
L 419.367505 436.05438 
L 420.266925 436.987358 
L 421.166344 434.439812 
L 422.065764 432.941768 
L 422.965184 437.371668 
L 423.864603 436.299636 
L 424.764023 435.451326 
L 425.663443 435.664554 
L 426.562863 435.476929 
L 427.462282 437.215306 
L 428.361702 438.300459 
L 429.261122 435.973643 
L 430.160542 436.971465 
L 431.059961 435.269437 
L 431.959381 431.06389 
L 432.858801 430.804182 
L 433.758221 434.224902 
L 434.65764 434.631172 
L 435.55706 437.814581 
L 436.45648 437.02399 
L 437.355899 435.117298 
L 438.255319 437.140686 
L 439.154739 437.541235 
L 440.054159 437.137142 
L 440.953578 436.150425 
L 442.752418 435.313484 
L 443.651838 432.051895 
L 444.551257 436.969587 
L 445.450677 435.498704 
L 446.350097 434.459946 
L 447.249516 438.650662 
L 448.148936 437.00263 
L 449.048356 436.548879 
L 449.947776 437.839186 
L 450.847195 435.473727 
L 451.746615 436.142944 
L 452.646035 435.334535 
L 453.545455 431.724796 
L 454.444874 435.529237 
L 455.344294 437.123485 
L 456.243714 436.538658 
L 457.143133 437.637712 
L 458.042553 435.695654 
L 458.941973 434.637597 
L 459.841393 435.474077 
L 460.740812 430.081989 
L 461.640232 432.512958 
L 462.539652 431.272048 
L 463.439072 431.972831 
L 464.338491 435.216515 
L 465.237911 436.865515 
L 466.137331 436.709405 
L 467.03675 430.544102 
L 467.93617 437.129491 
L 468.83559 435.485963 
L 469.73501 437.133702 
L 470.634429 437.618235 
L 471.533849 437.251585 
L 472.433269 434.961846 
L 473.332689 437.40713 
L 474.232108 437.873369 
L 475.131528 436.529042 
L 476.030948 437.330526 
L 476.930368 436.670116 
L 477.829787 435.127538 
L 479.628627 437.300678 
L 480.528046 437.323413 
L 481.427466 435.196792 
L 482.326886 435.918098 
L 483.226306 435.830592 
L 484.125725 435.20492 
L 485.025145 434.256936 
L 485.924565 437.22734 
L 486.823985 436.586255 
L 487.723404 436.545399 
L 488.622824 434.595095 
L 489.522244 437.769514 
L 490.421663 434.967759 
L 491.321083 434.780545 
L 492.220503 437.190692 
L 493.119923 435.097992 
L 494.019342 436.531947 
L 494.918762 435.467981 
L 495.818182 438.148109 
L 496.717602 436.664296 
L 497.617021 438.519817 
L 498.516441 436.90269 
L 499.415861 434.282205 
L 501.2147 437.798204 
L 502.11412 436.287302 
L 503.01354 436.40828 
L 503.912959 434.201137 
L 504.812379 432.511778 
L 505.711799 435.59182 
L 506.611219 437.464739 
L 507.510638 438.238998 
L 508.410058 437.758084 
L 509.309478 436.439945 
L 510.208897 436.352515 
L 511.108317 436.636842 
L 512.007737 437.331867 
L 512.907157 433.434762 
L 513.806576 434.003055 
L 514.705996 434.263192 
L 516.504836 437.856248 
L 517.404255 435.27947 
L 518.303675 435.557059 
L 519.203095 438.521605 
L 520.102515 435.224315 
L 521.001934 435.253446 
L 521.901354 435.738472 
L 522.800774 433.2602 
L 523.700193 431.878074 
L 524.599613 437.423125 
L 525.499033 436.641507 
L 526.398453 437.493847 
L 527.297872 437.380121 
L 528.197292 434.573312 
L 529.096712 434.899608 
L 529.996132 436.94208 
L 530.895551 437.765414 
L 531.794971 437.23297 
L 532.694391 437.480742 
L 533.59381 436.618611 
L 534.49323 438.331919 
L 535.39265 436.394213 
L 536.29207 434.797773 
L 537.191489 436.038957 
L 538.090909 433.307588 
L 538.990329 434.684877 
L 539.889749 436.996831 
L 540.789168 436.572012 
L 541.688588 435.772738 
L 542.588008 437.174516 
L 543.487427 438.851489 
L 544.386847 436.37837 
L 545.286267 432.533706 
L 546.185687 435.055804 
L 547.085106 435.772367 
L 547.984526 436.299908 
L 548.883946 435.855708 
L 549.783366 436.182798 
L 550.682785 438.503718 
L 551.582205 436.042418 
L 552.481625 432.375813 
L 553.381044 434.923463 
L 554.280464 436.158671 
L 555.179884 434.757465 
L 556.079304 437.526007 
L 556.978723 435.823122 
L 557.878143 436.14818 
L 558.777563 436.24037 
L 559.676983 435.222578 
L 561.475822 437.26367 
L 562.375242 435.922931 
L 563.274662 437.237892 
L 564.174081 436.815233 
L 565.073501 436.174105 
L 565.972921 436.324503 
L 566.87234 437.837224 
L 567.77176 434.209135 
L 568.67118 434.713695 
L 569.5706 437.230103 
L 570.470019 430.851642 
L 571.369439 438.018616 
L 572.268859 436.629817 
L 573.168279 437.547297 
L 574.067698 435.898823 
L 574.967118 435.767871 
L 575.866538 437.785681 
L 576.765957 438.168849 
L 577.665377 436.40445 
L 578.564797 437.960298 
L 579.464217 438.125194 
L 580.363636 437.504701 
L 581.263056 436.498618 
L 582.162476 435.088641 
L 583.061896 438.278342 
L 583.961315 434.016334 
L 584.860735 437.518855 
L 585.760155 438.39524 
L 586.659574 437.918555 
L 587.558994 436.37382 
L 588.458414 436.104823 
L 589.357834 436.667551 
L 590.257253 436.611569 
L 591.156673 436.705661 
L 592.056093 436.481871 
L 592.955513 435.751417 
L 593.854932 437.808995 
L 594.754352 436.237478 
L 595.653772 436.527941 
L 596.553191 436.683963 
L 597.452611 438.371459 
L 598.352031 437.999832 
L 599.251451 431.76067 
L 601.05029 437.683772 
L 601.94971 436.848215 
L 602.84913 435.589601 
L 603.748549 438.617943 
L 604.647969 438.337425 
L 605.547389 434.939732 
L 606.446809 424.939179 
L 607.346228 431.579535 
L 608.245648 434.591035 
L 609.145068 434.882391 
L 610.044487 435.665435 
L 610.943907 437.964917 
L 611.843327 436.502052 
L 612.742747 438.144079 
L 613.642166 435.998188 
L 614.541586 437.581694 
L 615.441006 437.062099 
L 616.340426 435.983685 
L 617.239845 435.22852 
L 618.139265 434.167014 
L 619.038685 427.658269 
L 619.938104 435.887954 
L 620.837524 436.001866 
L 621.736944 438.192558 
L 622.636364 434.526632 
L 622.636364 434.526632 
" style="fill:none;stroke:#808080;stroke-linecap:square;stroke-width:1.5;"/>
   </g>
   <g id="patch_3">
    <path d="M 90 441 
L 90 60.48 
" style="fill:none;stroke:#000000;stroke-linecap:square;stroke-linejoin:miter;stroke-width:0.8;"/>
   </g>
   <g id="patch_4">
    <path d="M 648 441 
L 648 60.48 
" style="fill:none;stroke:#000000;stroke-linecap:square;stroke-linejoin:miter;stroke-width:0.8;"/>
   </g>
   <g id="patch_5">
    <path d="M 90 441 
L 648 441 
" style="fill:none;stroke:#000000;stroke-linecap:square;stroke-linejoin:miter;stroke-width:0.8;"/>
   </g>
   <g id="patch_6">
    <path d="M 90 60.48 
L 648 60.48 
" style="fill:none;stroke:#000000;stroke-linecap:square;stroke-linejoin:miter;stroke-width:0.8;"/>
   </g>
  </g>
 </g>
 <defs>
  <clipPath id="p330501c0e2">
   <rect height="380.52" width="558" x="90" y="60.48"/>
  </clipPath>
 </defs>
</svg>
