<?xml version="1.0" encoding="utf-8" standalone="no"?>
<!DOCTYPE svg PUBLIC "-//W3C//DTD SVG 1.1//EN"
  "http://www.w3.org/Graphics/SVG/1.1/DTD/svg11.dtd">
<!-- Created with matplotlib (https://matplotlib.org/) -->
<svg height="504pt" version="1.1" viewBox="0 0 720 504" width="720pt" xmlns="http://www.w3.org/2000/svg" xmlns:xlink="http://www.w3.org/1999/xlink">
 <defs>
  <style type="text/css">
*{stroke-linecap:butt;stroke-linejoin:round;}
  </style>
 </defs>
 <g id="figure_1">
  <g id="patch_1">
   <path d="M 0 504 
L 720 504 
L 720 0 
L 0 0 
z
" style="fill:#ffffff;"/>
  </g>
  <g id="axes_1">
   <g id="patch_2">
    <path d="M 90 441 
L 648 441 
L 648 60.48 
L 90 60.48 
z
" style="fill:#ffffff;"/>
   </g>
   <g id="matplotlib.axis_1">
    <g id="xtick_1">
     <g id="line2d_1">
      <defs>
       <path d="M 0 0 
L 0 3.5 
" id="m8601929b43" style="stroke:#000000;stroke-width:0.8;"/>
      </defs>
      <g>
       <use style="stroke:#000000;stroke-width:0.8;" x="115.363636" xlink:href="#m8601929b43" y="441"/>
      </g>
     </g>
     <g id="text_1">
      <!-- 0 -->
      <defs>
       <path d="M 31.78125 66.40625 
Q 24.171875 66.40625 20.328125 58.90625 
Q 16.5 51.421875 16.5 36.375 
Q 16.5 21.390625 20.328125 13.890625 
Q 24.171875 6.390625 31.78125 6.390625 
Q 39.453125 6.390625 43.28125 13.890625 
Q 47.125 21.390625 47.125 36.375 
Q 47.125 51.421875 43.28125 58.90625 
Q 39.453125 66.40625 31.78125 66.40625 
z
M 31.78125 74.21875 
Q 44.046875 74.21875 50.515625 64.515625 
Q 56.984375 54.828125 56.984375 36.375 
Q 56.984375 17.96875 50.515625 8.265625 
Q 44.046875 -1.421875 31.78125 -1.421875 
Q 19.53125 -1.421875 13.0625 8.265625 
Q 6.59375 17.96875 6.59375 36.375 
Q 6.59375 54.828125 13.0625 64.515625 
Q 19.53125 74.21875 31.78125 74.21875 
z
" id="DejaVuSans-48"/>
      </defs>
      <g transform="translate(107.410511 466.996094)scale(0.25 -0.25)">
       <use xlink:href="#DejaVuSans-48"/>
      </g>
     </g>
    </g>
    <g id="xtick_2">
     <g id="line2d_2">
      <g>
       <use style="stroke:#000000;stroke-width:0.8;" x="205.305609" xlink:href="#m8601929b43" y="441"/>
      </g>
     </g>
     <g id="text_2">
      <!-- 100 -->
      <defs>
       <path d="M 12.40625 8.296875 
L 28.515625 8.296875 
L 28.515625 63.921875 
L 10.984375 60.40625 
L 10.984375 69.390625 
L 28.421875 72.90625 
L 38.28125 72.90625 
L 38.28125 8.296875 
L 54.390625 8.296875 
L 54.390625 0 
L 12.40625 0 
z
" id="DejaVuSans-49"/>
      </defs>
      <g transform="translate(181.446234 466.996094)scale(0.25 -0.25)">
       <use xlink:href="#DejaVuSans-49"/>
       <use x="63.623047" xlink:href="#DejaVuSans-48"/>
       <use x="127.246094" xlink:href="#DejaVuSans-48"/>
      </g>
     </g>
    </g>
    <g id="xtick_3">
     <g id="line2d_3">
      <g>
       <use style="stroke:#000000;stroke-width:0.8;" x="295.247582" xlink:href="#m8601929b43" y="441"/>
      </g>
     </g>
     <g id="text_3">
      <!-- 200 -->
      <defs>
       <path d="M 19.1875 8.296875 
L 53.609375 8.296875 
L 53.609375 0 
L 7.328125 0 
L 7.328125 8.296875 
Q 12.9375 14.109375 22.625 23.890625 
Q 32.328125 33.6875 34.8125 36.53125 
Q 39.546875 41.84375 41.421875 45.53125 
Q 43.3125 49.21875 43.3125 52.78125 
Q 43.3125 58.59375 39.234375 62.25 
Q 35.15625 65.921875 28.609375 65.921875 
Q 23.96875 65.921875 18.8125 64.3125 
Q 13.671875 62.703125 7.8125 59.421875 
L 7.8125 69.390625 
Q 13.765625 71.78125 18.9375 73 
Q 24.125 74.21875 28.421875 74.21875 
Q 39.75 74.21875 46.484375 68.546875 
Q 53.21875 62.890625 53.21875 53.421875 
Q 53.21875 48.921875 51.53125 44.890625 
Q 49.859375 40.875 45.40625 35.40625 
Q 44.1875 33.984375 37.640625 27.21875 
Q 31.109375 20.453125 19.1875 8.296875 
z
" id="DejaVuSans-50"/>
      </defs>
      <g transform="translate(271.388207 466.996094)scale(0.25 -0.25)">
       <use xlink:href="#DejaVuSans-50"/>
       <use x="63.623047" xlink:href="#DejaVuSans-48"/>
       <use x="127.246094" xlink:href="#DejaVuSans-48"/>
      </g>
     </g>
    </g>
    <g id="xtick_4">
     <g id="line2d_4">
      <g>
       <use style="stroke:#000000;stroke-width:0.8;" x="385.189555" xlink:href="#m8601929b43" y="441"/>
      </g>
     </g>
     <g id="text_4">
      <!-- 300 -->
      <defs>
       <path d="M 40.578125 39.3125 
Q 47.65625 37.796875 51.625 33 
Q 55.609375 28.21875 55.609375 21.1875 
Q 55.609375 10.40625 48.1875 4.484375 
Q 40.765625 -1.421875 27.09375 -1.421875 
Q 22.515625 -1.421875 17.65625 -0.515625 
Q 12.796875 0.390625 7.625 2.203125 
L 7.625 11.71875 
Q 11.71875 9.328125 16.59375 8.109375 
Q 21.484375 6.890625 26.8125 6.890625 
Q 36.078125 6.890625 40.9375 10.546875 
Q 45.796875 14.203125 45.796875 21.1875 
Q 45.796875 27.640625 41.28125 31.265625 
Q 36.765625 34.90625 28.71875 34.90625 
L 20.21875 34.90625 
L 20.21875 43.015625 
L 29.109375 43.015625 
Q 36.375 43.015625 40.234375 45.921875 
Q 44.09375 48.828125 44.09375 54.296875 
Q 44.09375 59.90625 40.109375 62.90625 
Q 36.140625 65.921875 28.71875 65.921875 
Q 24.65625 65.921875 20.015625 65.03125 
Q 15.375 64.15625 9.8125 62.3125 
L 9.8125 71.09375 
Q 15.4375 72.65625 20.34375 73.4375 
Q 25.25 74.21875 29.59375 74.21875 
Q 40.828125 74.21875 47.359375 69.109375 
Q 53.90625 64.015625 53.90625 55.328125 
Q 53.90625 49.265625 50.4375 45.09375 
Q 46.96875 40.921875 40.578125 39.3125 
z
" id="DejaVuSans-51"/>
      </defs>
      <g transform="translate(361.33018 466.996094)scale(0.25 -0.25)">
       <use xlink:href="#DejaVuSans-51"/>
       <use x="63.623047" xlink:href="#DejaVuSans-48"/>
       <use x="127.246094" xlink:href="#DejaVuSans-48"/>
      </g>
     </g>
    </g>
    <g id="xtick_5">
     <g id="line2d_5">
      <g>
       <use style="stroke:#000000;stroke-width:0.8;" x="475.131528" xlink:href="#m8601929b43" y="441"/>
      </g>
     </g>
     <g id="text_5">
      <!-- 400 -->
      <defs>
       <path d="M 37.796875 64.3125 
L 12.890625 25.390625 
L 37.796875 25.390625 
z
M 35.203125 72.90625 
L 47.609375 72.90625 
L 47.609375 25.390625 
L 58.015625 25.390625 
L 58.015625 17.1875 
L 47.609375 17.1875 
L 47.609375 0 
L 37.796875 0 
L 37.796875 17.1875 
L 4.890625 17.1875 
L 4.890625 26.703125 
z
" id="DejaVuSans-52"/>
      </defs>
      <g transform="translate(451.272153 466.996094)scale(0.25 -0.25)">
       <use xlink:href="#DejaVuSans-52"/>
       <use x="63.623047" xlink:href="#DejaVuSans-48"/>
       <use x="127.246094" xlink:href="#DejaVuSans-48"/>
      </g>
     </g>
    </g>
    <g id="xtick_6">
     <g id="line2d_6">
      <g>
       <use style="stroke:#000000;stroke-width:0.8;" x="565.073501" xlink:href="#m8601929b43" y="441"/>
      </g>
     </g>
     <g id="text_6">
      <!-- 500 -->
      <defs>
       <path d="M 10.796875 72.90625 
L 49.515625 72.90625 
L 49.515625 64.59375 
L 19.828125 64.59375 
L 19.828125 46.734375 
Q 21.96875 47.46875 24.109375 47.828125 
Q 26.265625 48.1875 28.421875 48.1875 
Q 40.625 48.1875 47.75 41.5 
Q 54.890625 34.8125 54.890625 23.390625 
Q 54.890625 11.625 47.5625 5.09375 
Q 40.234375 -1.421875 26.90625 -1.421875 
Q 22.3125 -1.421875 17.546875 -0.640625 
Q 12.796875 0.140625 7.71875 1.703125 
L 7.71875 11.625 
Q 12.109375 9.234375 16.796875 8.0625 
Q 21.484375 6.890625 26.703125 6.890625 
Q 35.15625 6.890625 40.078125 11.328125 
Q 45.015625 15.765625 45.015625 23.390625 
Q 45.015625 31 40.078125 35.4375 
Q 35.15625 39.890625 26.703125 39.890625 
Q 22.75 39.890625 18.8125 39.015625 
Q 14.890625 38.140625 10.796875 36.28125 
z
" id="DejaVuSans-53"/>
      </defs>
      <g transform="translate(541.214126 466.996094)scale(0.25 -0.25)">
       <use xlink:href="#DejaVuSans-53"/>
       <use x="63.623047" xlink:href="#DejaVuSans-48"/>
       <use x="127.246094" xlink:href="#DejaVuSans-48"/>
      </g>
     </g>
    </g>
    <g id="text_7">
     <!-- Tip of tail fiber sequence (bp) -->
     <defs>
      <path d="M 0.484375 72.90625 
L 67.671875 72.90625 
L 67.671875 58.6875 
L 43.5 58.6875 
L 43.5 0 
L 24.703125 0 
L 24.703125 58.6875 
L 0.484375 58.6875 
z
" id="DejaVuSans-Bold-84"/>
      <path d="M 8.40625 54.6875 
L 25.875 54.6875 
L 25.875 0 
L 8.40625 0 
z
M 8.40625 75.984375 
L 25.875 75.984375 
L 25.875 61.71875 
L 8.40625 61.71875 
z
" id="DejaVuSans-Bold-105"/>
      <path d="M 25.875 7.90625 
L 25.875 -20.796875 
L 8.40625 -20.796875 
L 8.40625 54.6875 
L 25.875 54.6875 
L 25.875 46.6875 
Q 29.5 51.46875 33.890625 53.734375 
Q 38.28125 56 44 56 
Q 54.109375 56 60.59375 47.96875 
Q 67.09375 39.9375 67.09375 27.296875 
Q 67.09375 14.65625 60.59375 6.609375 
Q 54.109375 -1.421875 44 -1.421875 
Q 38.28125 -1.421875 33.890625 0.84375 
Q 29.5 3.125 25.875 7.90625 
z
M 37.5 43.3125 
Q 31.890625 43.3125 28.875 39.1875 
Q 25.875 35.0625 25.875 27.296875 
Q 25.875 19.53125 28.875 15.40625 
Q 31.890625 11.28125 37.5 11.28125 
Q 43.109375 11.28125 46.0625 15.375 
Q 49.03125 19.484375 49.03125 27.296875 
Q 49.03125 35.109375 46.0625 39.203125 
Q 43.109375 43.3125 37.5 43.3125 
z
" id="DejaVuSans-Bold-112"/>
      <path id="DejaVuSans-Bold-32"/>
      <path d="M 34.421875 43.5 
Q 28.609375 43.5 25.5625 39.328125 
Q 22.515625 35.15625 22.515625 27.296875 
Q 22.515625 19.4375 25.5625 15.25 
Q 28.609375 11.078125 34.421875 11.078125 
Q 40.140625 11.078125 43.15625 15.25 
Q 46.1875 19.4375 46.1875 27.296875 
Q 46.1875 35.15625 43.15625 39.328125 
Q 40.140625 43.5 34.421875 43.5 
z
M 34.421875 56 
Q 48.53125 56 56.46875 48.375 
Q 64.40625 40.765625 64.40625 27.296875 
Q 64.40625 13.8125 56.46875 6.1875 
Q 48.53125 -1.421875 34.421875 -1.421875 
Q 20.265625 -1.421875 12.28125 6.1875 
Q 4.296875 13.8125 4.296875 27.296875 
Q 4.296875 40.765625 12.28125 48.375 
Q 20.265625 56 34.421875 56 
z
" id="DejaVuSans-Bold-111"/>
      <path d="M 44.390625 75.984375 
L 44.390625 64.5 
L 34.71875 64.5 
Q 31 64.5 29.53125 63.15625 
Q 28.078125 61.8125 28.078125 58.5 
L 28.078125 54.6875 
L 43.015625 54.6875 
L 43.015625 42.1875 
L 28.078125 42.1875 
L 28.078125 0 
L 10.59375 0 
L 10.59375 42.1875 
L 1.90625 42.1875 
L 1.90625 54.6875 
L 10.59375 54.6875 
L 10.59375 58.5 
Q 10.59375 67.4375 15.578125 71.703125 
Q 20.5625 75.984375 31 75.984375 
z
" id="DejaVuSans-Bold-102"/>
      <path d="M 27.484375 70.21875 
L 27.484375 54.6875 
L 45.515625 54.6875 
L 45.515625 42.1875 
L 27.484375 42.1875 
L 27.484375 19 
Q 27.484375 15.1875 29 13.84375 
Q 30.515625 12.5 35.015625 12.5 
L 44 12.5 
L 44 0 
L 29 0 
Q 18.65625 0 14.328125 4.3125 
Q 10.015625 8.640625 10.015625 19 
L 10.015625 42.1875 
L 1.3125 42.1875 
L 1.3125 54.6875 
L 10.015625 54.6875 
L 10.015625 70.21875 
z
" id="DejaVuSans-Bold-116"/>
      <path d="M 32.90625 24.609375 
Q 27.4375 24.609375 24.671875 22.75 
Q 21.921875 20.90625 21.921875 17.28125 
Q 21.921875 13.96875 24.140625 12.078125 
Q 26.375 10.203125 30.328125 10.203125 
Q 35.25 10.203125 38.625 13.734375 
Q 42 17.28125 42 22.609375 
L 42 24.609375 
z
M 59.625 31.203125 
L 59.625 0 
L 42 0 
L 42 8.109375 
Q 38.484375 3.125 34.078125 0.84375 
Q 29.6875 -1.421875 23.390625 -1.421875 
Q 14.890625 -1.421875 9.59375 3.53125 
Q 4.296875 8.5 4.296875 16.40625 
Q 4.296875 26.03125 10.90625 30.515625 
Q 17.53125 35.015625 31.6875 35.015625 
L 42 35.015625 
L 42 36.375 
Q 42 40.53125 38.71875 42.453125 
Q 35.453125 44.390625 28.515625 44.390625 
Q 22.90625 44.390625 18.0625 43.265625 
Q 13.234375 42.140625 9.078125 39.890625 
L 9.078125 53.21875 
Q 14.703125 54.59375 20.359375 55.296875 
Q 26.03125 56 31.6875 56 
Q 46.484375 56 53.046875 50.171875 
Q 59.625 44.34375 59.625 31.203125 
z
" id="DejaVuSans-Bold-97"/>
      <path d="M 8.40625 75.984375 
L 25.875 75.984375 
L 25.875 0 
L 8.40625 0 
z
" id="DejaVuSans-Bold-108"/>
      <path d="M 37.5 11.28125 
Q 43.109375 11.28125 46.0625 15.375 
Q 49.03125 19.484375 49.03125 27.296875 
Q 49.03125 35.109375 46.0625 39.203125 
Q 43.109375 43.3125 37.5 43.3125 
Q 31.890625 43.3125 28.875 39.1875 
Q 25.875 35.0625 25.875 27.296875 
Q 25.875 19.53125 28.875 15.40625 
Q 31.890625 11.28125 37.5 11.28125 
z
M 25.875 46.6875 
Q 29.5 51.46875 33.890625 53.734375 
Q 38.28125 56 44 56 
Q 54.109375 56 60.59375 47.96875 
Q 67.09375 39.9375 67.09375 27.296875 
Q 67.09375 14.65625 60.59375 6.609375 
Q 54.109375 -1.421875 44 -1.421875 
Q 38.28125 -1.421875 33.890625 0.84375 
Q 29.5 3.125 25.875 7.90625 
L 25.875 0 
L 8.40625 0 
L 8.40625 75.984375 
L 25.875 75.984375 
z
" id="DejaVuSans-Bold-98"/>
      <path d="M 62.984375 27.484375 
L 62.984375 22.515625 
L 22.125 22.515625 
Q 22.75 16.359375 26.5625 13.28125 
Q 30.375 10.203125 37.203125 10.203125 
Q 42.71875 10.203125 48.5 11.84375 
Q 54.296875 13.484375 60.40625 16.796875 
L 60.40625 3.328125 
Q 54.203125 0.984375 48 -0.21875 
Q 41.796875 -1.421875 35.59375 -1.421875 
Q 20.75 -1.421875 12.515625 6.125 
Q 4.296875 13.671875 4.296875 27.296875 
Q 4.296875 40.671875 12.375 48.328125 
Q 20.453125 56 34.625 56 
Q 47.515625 56 55.25 48.234375 
Q 62.984375 40.484375 62.984375 27.484375 
z
M 45.015625 33.296875 
Q 45.015625 38.28125 42.109375 41.328125 
Q 39.203125 44.390625 34.515625 44.390625 
Q 29.4375 44.390625 26.265625 41.53125 
Q 23.09375 38.671875 22.3125 33.296875 
z
" id="DejaVuSans-Bold-101"/>
      <path d="M 49.03125 39.796875 
Q 46.734375 40.875 44.453125 41.375 
Q 42.1875 41.890625 39.890625 41.890625 
Q 33.15625 41.890625 29.515625 37.5625 
Q 25.875 33.25 25.875 25.203125 
L 25.875 0 
L 8.40625 0 
L 8.40625 54.6875 
L 25.875 54.6875 
L 25.875 45.703125 
Q 29.25 51.078125 33.609375 53.53125 
Q 37.984375 56 44.09375 56 
Q 44.96875 56 45.984375 55.921875 
Q 47.015625 55.859375 48.96875 55.609375 
z
" id="DejaVuSans-Bold-114"/>
      <path d="M 51.125 52.984375 
L 51.125 39.703125 
Q 45.515625 42.046875 40.28125 43.21875 
Q 35.0625 44.390625 30.421875 44.390625 
Q 25.4375 44.390625 23.015625 43.140625 
Q 20.609375 41.890625 20.609375 39.3125 
Q 20.609375 37.203125 22.4375 36.078125 
Q 24.265625 34.96875 29 34.421875 
L 32.078125 33.984375 
Q 45.515625 32.28125 50.140625 28.375 
Q 54.78125 24.46875 54.78125 16.109375 
Q 54.78125 7.375 48.328125 2.96875 
Q 41.890625 -1.421875 29.109375 -1.421875 
Q 23.6875 -1.421875 17.890625 -0.5625 
Q 12.109375 0.296875 6 2 
L 6 15.28125 
Q 11.234375 12.75 16.71875 11.46875 
Q 22.21875 10.203125 27.875 10.203125 
Q 33.015625 10.203125 35.59375 11.609375 
Q 38.1875 13.03125 38.1875 15.828125 
Q 38.1875 18.171875 36.40625 19.3125 
Q 34.625 20.453125 29.296875 21.09375 
L 26.21875 21.484375 
Q 14.546875 22.953125 9.859375 26.90625 
Q 5.171875 30.859375 5.171875 38.921875 
Q 5.171875 47.609375 11.125 51.796875 
Q 17.09375 56 29.390625 56 
Q 34.234375 56 39.546875 55.265625 
Q 44.875 54.546875 51.125 52.984375 
z
" id="DejaVuSans-Bold-115"/>
      <path d="M 34.078125 43.3125 
Q 28.515625 43.3125 25.5625 39.203125 
Q 22.609375 35.109375 22.609375 27.296875 
Q 22.609375 19.484375 25.5625 15.375 
Q 28.515625 11.28125 34.078125 11.28125 
Q 39.703125 11.28125 42.65625 15.375 
Q 45.609375 19.484375 45.609375 27.296875 
Q 45.609375 35.109375 42.65625 39.203125 
Q 39.703125 43.3125 34.078125 43.3125 
z
M 45.609375 7.90625 
Q 42 3.078125 37.640625 0.828125 
Q 33.296875 -1.421875 27.59375 -1.421875 
Q 17.484375 -1.421875 10.984375 6.609375 
Q 4.5 14.65625 4.5 27.296875 
Q 4.5 39.9375 10.984375 47.921875 
Q 17.484375 55.90625 27.59375 55.90625 
Q 33.296875 55.90625 37.640625 53.65625 
Q 42 51.421875 45.609375 46.578125 
L 45.609375 54.6875 
L 63.1875 54.6875 
L 63.1875 -20.796875 
L 45.609375 -20.796875 
z
" id="DejaVuSans-Bold-113"/>
      <path d="M 7.8125 21.296875 
L 7.8125 54.6875 
L 25.390625 54.6875 
L 25.390625 49.21875 
Q 25.390625 44.78125 25.34375 38.0625 
Q 25.296875 31.34375 25.296875 29.109375 
Q 25.296875 22.515625 25.640625 19.609375 
Q 25.984375 16.703125 26.8125 15.375 
Q 27.875 13.671875 29.609375 12.734375 
Q 31.34375 11.8125 33.59375 11.8125 
Q 39.0625 11.8125 42.1875 16.015625 
Q 45.3125 20.21875 45.3125 27.6875 
L 45.3125 54.6875 
L 62.796875 54.6875 
L 62.796875 0 
L 45.3125 0 
L 45.3125 7.90625 
Q 41.359375 3.125 36.9375 0.84375 
Q 32.515625 -1.421875 27.203125 -1.421875 
Q 17.71875 -1.421875 12.765625 4.390625 
Q 7.8125 10.203125 7.8125 21.296875 
z
" id="DejaVuSans-Bold-117"/>
      <path d="M 63.375 33.296875 
L 63.375 0 
L 45.796875 0 
L 45.796875 5.421875 
L 45.796875 25.484375 
Q 45.796875 32.5625 45.484375 35.25 
Q 45.171875 37.9375 44.390625 39.203125 
Q 43.359375 40.921875 41.59375 41.875 
Q 39.84375 42.828125 37.59375 42.828125 
Q 32.125 42.828125 29 38.59375 
Q 25.875 34.375 25.875 26.90625 
L 25.875 0 
L 8.40625 0 
L 8.40625 54.6875 
L 25.875 54.6875 
L 25.875 46.6875 
Q 29.828125 51.46875 34.265625 53.734375 
Q 38.71875 56 44.09375 56 
Q 53.5625 56 58.46875 50.1875 
Q 63.375 44.390625 63.375 33.296875 
z
" id="DejaVuSans-Bold-110"/>
      <path d="M 52.59375 52.984375 
L 52.59375 38.71875 
Q 49.03125 41.15625 45.4375 42.328125 
Q 41.84375 43.5 37.984375 43.5 
Q 30.671875 43.5 26.59375 39.234375 
Q 22.515625 34.96875 22.515625 27.296875 
Q 22.515625 19.625 26.59375 15.34375 
Q 30.671875 11.078125 37.984375 11.078125 
Q 42.09375 11.078125 45.78125 12.296875 
Q 49.46875 13.53125 52.59375 15.921875 
L 52.59375 1.609375 
Q 48.484375 0.09375 44.265625 -0.65625 
Q 40.046875 -1.421875 35.796875 -1.421875 
Q 21 -1.421875 12.640625 6.171875 
Q 4.296875 13.765625 4.296875 27.296875 
Q 4.296875 40.828125 12.640625 48.40625 
Q 21 56 35.796875 56 
Q 40.09375 56 44.265625 55.25 
Q 48.4375 54.5 52.59375 52.984375 
z
" id="DejaVuSans-Bold-99"/>
      <path d="M 37.703125 -13.1875 
L 23.1875 -13.1875 
Q 15.71875 -1.125 12.15625 9.734375 
Q 8.59375 20.609375 8.59375 31.296875 
Q 8.59375 42 12.171875 52.953125 
Q 15.765625 63.921875 23.1875 75.875 
L 37.703125 75.875 
Q 31.453125 64.3125 28.328125 53.25 
Q 25.203125 42.1875 25.203125 31.390625 
Q 25.203125 20.609375 28.296875 9.515625 
Q 31.390625 -1.5625 37.703125 -13.1875 
z
" id="DejaVuSans-Bold-40"/>
      <path d="M 8.015625 -13.1875 
Q 14.265625 -1.5625 17.390625 9.515625 
Q 20.515625 20.609375 20.515625 31.390625 
Q 20.515625 42.1875 17.390625 53.25 
Q 14.265625 64.3125 8.015625 75.875 
L 22.515625 75.875 
Q 29.9375 63.921875 33.515625 52.953125 
Q 37.109375 42 37.109375 31.296875 
Q 37.109375 20.609375 33.546875 9.734375 
Q 29.984375 -1.125 22.515625 -13.1875 
z
" id="DejaVuSans-Bold-41"/>
     </defs>
     <g transform="translate(158.814453 495.191406)scale(0.25 -0.25)">
      <use xlink:href="#DejaVuSans-Bold-84"/>
      <use x="68.212891" xlink:href="#DejaVuSans-Bold-105"/>
      <use x="102.490234" xlink:href="#DejaVuSans-Bold-112"/>
      <use x="174.072266" xlink:href="#DejaVuSans-Bold-32"/>
      <use x="208.886719" xlink:href="#DejaVuSans-Bold-111"/>
      <use x="277.587891" xlink:href="#DejaVuSans-Bold-102"/>
      <use x="321.09375" xlink:href="#DejaVuSans-Bold-32"/>
      <use x="355.908203" xlink:href="#DejaVuSans-Bold-116"/>
      <use x="403.710938" xlink:href="#DejaVuSans-Bold-97"/>
      <use x="471.191406" xlink:href="#DejaVuSans-Bold-105"/>
      <use x="505.46875" xlink:href="#DejaVuSans-Bold-108"/>
      <use x="539.746094" xlink:href="#DejaVuSans-Bold-32"/>
      <use x="574.560547" xlink:href="#DejaVuSans-Bold-102"/>
      <use x="618.066406" xlink:href="#DejaVuSans-Bold-105"/>
      <use x="652.34375" xlink:href="#DejaVuSans-Bold-98"/>
      <use x="723.925781" xlink:href="#DejaVuSans-Bold-101"/>
      <use x="791.748047" xlink:href="#DejaVuSans-Bold-114"/>
      <use x="841.064453" xlink:href="#DejaVuSans-Bold-32"/>
      <use x="875.878906" xlink:href="#DejaVuSans-Bold-115"/>
      <use x="935.400391" xlink:href="#DejaVuSans-Bold-101"/>
      <use x="1003.222656" xlink:href="#DejaVuSans-Bold-113"/>
      <use x="1074.804688" xlink:href="#DejaVuSans-Bold-117"/>
      <use x="1145.996094" xlink:href="#DejaVuSans-Bold-101"/>
      <use x="1213.818359" xlink:href="#DejaVuSans-Bold-110"/>
      <use x="1285.009766" xlink:href="#DejaVuSans-Bold-99"/>
      <use x="1344.287109" xlink:href="#DejaVuSans-Bold-101"/>
      <use x="1412.109375" xlink:href="#DejaVuSans-Bold-32"/>
      <use x="1446.923828" xlink:href="#DejaVuSans-Bold-40"/>
      <use x="1492.626953" xlink:href="#DejaVuSans-Bold-98"/>
      <use x="1564.208984" xlink:href="#DejaVuSans-Bold-112"/>
      <use x="1635.791016" xlink:href="#DejaVuSans-Bold-41"/>
     </g>
    </g>
   </g>
   <g id="matplotlib.axis_2">
    <g id="ytick_1">
     <g id="line2d_7">
      <defs>
       <path d="M 0 0 
L -3.5 0 
" id="m67c376422b" style="stroke:#000000;stroke-width:0.8;"/>
      </defs>
      <g>
       <use style="stroke:#000000;stroke-width:0.8;" x="90" xlink:href="#m67c376422b" y="441"/>
      </g>
     </g>
     <g id="text_8">
      <!-- 0.000 -->
      <defs>
       <path d="M 10.6875 12.40625 
L 21 12.40625 
L 21 0 
L 10.6875 0 
z
" id="DejaVuSans-46"/>
      </defs>
      <g transform="translate(11.429688 450.498047)scale(0.25 -0.25)">
       <use xlink:href="#DejaVuSans-48"/>
       <use x="63.623047" xlink:href="#DejaVuSans-46"/>
       <use x="95.410156" xlink:href="#DejaVuSans-48"/>
       <use x="159.033203" xlink:href="#DejaVuSans-48"/>
       <use x="222.65625" xlink:href="#DejaVuSans-48"/>
      </g>
     </g>
    </g>
    <g id="ytick_2">
     <g id="line2d_8">
      <g>
       <use style="stroke:#000000;stroke-width:0.8;" x="90" xlink:href="#m67c376422b" y="345.87"/>
      </g>
     </g>
     <g id="text_9">
      <!-- 0.005 -->
      <g transform="translate(11.429688 355.368047)scale(0.25 -0.25)">
       <use xlink:href="#DejaVuSans-48"/>
       <use x="63.623047" xlink:href="#DejaVuSans-46"/>
       <use x="95.410156" xlink:href="#DejaVuSans-48"/>
       <use x="159.033203" xlink:href="#DejaVuSans-48"/>
       <use x="222.65625" xlink:href="#DejaVuSans-53"/>
      </g>
     </g>
    </g>
    <g id="ytick_3">
     <g id="line2d_9">
      <g>
       <use style="stroke:#000000;stroke-width:0.8;" x="90" xlink:href="#m67c376422b" y="250.74"/>
      </g>
     </g>
     <g id="text_10">
      <!-- 0.010 -->
      <g transform="translate(11.429688 260.238047)scale(0.25 -0.25)">
       <use xlink:href="#DejaVuSans-48"/>
       <use x="63.623047" xlink:href="#DejaVuSans-46"/>
       <use x="95.410156" xlink:href="#DejaVuSans-48"/>
       <use x="159.033203" xlink:href="#DejaVuSans-49"/>
       <use x="222.65625" xlink:href="#DejaVuSans-48"/>
      </g>
     </g>
    </g>
    <g id="ytick_4">
     <g id="line2d_10">
      <g>
       <use style="stroke:#000000;stroke-width:0.8;" x="90" xlink:href="#m67c376422b" y="155.61"/>
      </g>
     </g>
     <g id="text_11">
      <!-- 0.015 -->
      <g transform="translate(11.429688 165.108047)scale(0.25 -0.25)">
       <use xlink:href="#DejaVuSans-48"/>
       <use x="63.623047" xlink:href="#DejaVuSans-46"/>
       <use x="95.410156" xlink:href="#DejaVuSans-48"/>
       <use x="159.033203" xlink:href="#DejaVuSans-49"/>
       <use x="222.65625" xlink:href="#DejaVuSans-53"/>
      </g>
     </g>
    </g>
    <g id="ytick_5">
     <g id="line2d_11">
      <g>
       <use style="stroke:#000000;stroke-width:0.8;" x="90" xlink:href="#m67c376422b" y="60.48"/>
      </g>
     </g>
     <g id="text_12">
      <!-- 0.020 -->
      <g transform="translate(11.429688 69.978047)scale(0.25 -0.25)">
       <use xlink:href="#DejaVuSans-48"/>
       <use x="63.623047" xlink:href="#DejaVuSans-46"/>
       <use x="95.410156" xlink:href="#DejaVuSans-48"/>
       <use x="159.033203" xlink:href="#DejaVuSans-50"/>
       <use x="222.65625" xlink:href="#DejaVuSans-48"/>
      </g>
     </g>
    </g>
    <g id="text_13">
     <!-- mutation frequency -->
     <defs>
      <path d="M 59.078125 45.609375 
Q 62.40625 50.6875 66.96875 53.34375 
Q 71.53125 56 77 56 
Q 86.421875 56 91.359375 50.1875 
Q 96.296875 44.390625 96.296875 33.296875 
L 96.296875 0 
L 78.71875 0 
L 78.71875 28.515625 
Q 78.765625 29.15625 78.78125 29.828125 
Q 78.8125 30.515625 78.8125 31.78125 
Q 78.8125 37.59375 77.09375 40.203125 
Q 75.390625 42.828125 71.578125 42.828125 
Q 66.609375 42.828125 63.890625 38.71875 
Q 61.1875 34.625 61.078125 26.859375 
L 61.078125 0 
L 43.5 0 
L 43.5 28.515625 
Q 43.5 37.59375 41.9375 40.203125 
Q 40.375 42.828125 36.375 42.828125 
Q 31.34375 42.828125 28.609375 38.703125 
Q 25.875 34.578125 25.875 26.90625 
L 25.875 0 
L 8.296875 0 
L 8.296875 54.6875 
L 25.875 54.6875 
L 25.875 46.6875 
Q 29.109375 51.3125 33.28125 53.65625 
Q 37.453125 56 42.484375 56 
Q 48.140625 56 52.484375 53.265625 
Q 56.84375 50.53125 59.078125 45.609375 
z
" id="DejaVuSans-Bold-109"/>
      <path d="M 1.21875 54.6875 
L 18.703125 54.6875 
L 33.40625 17.578125 
L 45.90625 54.6875 
L 63.375 54.6875 
L 40.375 -5.171875 
Q 36.921875 -14.3125 32.296875 -17.9375 
Q 27.6875 -21.578125 20.125 -21.578125 
L 10.015625 -21.578125 
L 10.015625 -10.109375 
L 15.484375 -10.109375 
Q 19.921875 -10.109375 21.9375 -8.6875 
Q 23.96875 -7.28125 25.09375 -3.609375 
L 25.59375 -2.09375 
z
" id="DejaVuSans-Bold-121"/>
     </defs>
     <g transform="translate(2.035156 390.032969)rotate(-90)scale(0.25 -0.25)">
      <use xlink:href="#DejaVuSans-Bold-109"/>
      <use x="104.199219" xlink:href="#DejaVuSans-Bold-117"/>
      <use x="175.390625" xlink:href="#DejaVuSans-Bold-116"/>
      <use x="223.193359" xlink:href="#DejaVuSans-Bold-97"/>
      <use x="290.673828" xlink:href="#DejaVuSans-Bold-116"/>
      <use x="338.476562" xlink:href="#DejaVuSans-Bold-105"/>
      <use x="372.753906" xlink:href="#DejaVuSans-Bold-111"/>
      <use x="441.455078" xlink:href="#DejaVuSans-Bold-110"/>
      <use x="512.646484" xlink:href="#DejaVuSans-Bold-32"/>
      <use x="547.460938" xlink:href="#DejaVuSans-Bold-102"/>
      <use x="590.966797" xlink:href="#DejaVuSans-Bold-114"/>
      <use x="640.283203" xlink:href="#DejaVuSans-Bold-101"/>
      <use x="708.105469" xlink:href="#DejaVuSans-Bold-113"/>
      <use x="779.6875" xlink:href="#DejaVuSans-Bold-117"/>
      <use x="850.878906" xlink:href="#DejaVuSans-Bold-101"/>
      <use x="918.701172" xlink:href="#DejaVuSans-Bold-110"/>
      <use x="989.892578" xlink:href="#DejaVuSans-Bold-99"/>
      <use x="1049.169922" xlink:href="#DejaVuSans-Bold-121"/>
     </g>
    </g>
   </g>
   <g id="line2d_12">
    <path clip-path="url(#p710bdb9632)" d="M 115.363636 435.465474 
L 116.263056 437.46139 
L 117.162476 432.866231 
L 118.061896 434.675954 
L 118.961315 435.860082 
L 119.860735 432.835692 
L 120.760155 434.332148 
L 121.659574 432.745678 
L 122.558994 433.283319 
L 123.458414 434.839811 
L 124.357834 431.229502 
L 125.257253 431.36085 
L 126.156673 432.282045 
L 127.056093 427.885424 
L 127.955513 430.60884 
L 128.854932 429.942517 
L 130.653772 434.905656 
L 131.553191 431.946272 
L 132.452611 436.62313 
L 133.352031 437.492237 
L 134.251451 434.09415 
L 135.15087 427.257653 
L 136.05029 432.259241 
L 136.94971 431.985786 
L 137.84913 424.146046 
L 138.748549 419.80711 
L 140.547389 434.38707 
L 141.446809 421.826545 
L 142.346228 432.740524 
L 143.245648 417.332535 
L 144.145068 406.98956 
L 145.044487 415.62607 
L 145.943907 426.880383 
L 146.843327 429.762419 
L 147.742747 430.796843 
L 148.642166 430.846318 
L 149.541586 417.0245 
L 150.441006 415.044267 
L 151.340426 393.359257 
L 152.239845 400.813226 
L 153.139265 383.905238 
L 154.038685 425.433507 
L 154.938104 423.234079 
L 155.837524 422.676156 
L 157.636364 392.892017 
L 158.535783 402.605684 
L 159.435203 401.472534 
L 160.334623 391.877931 
L 161.234043 423.514294 
L 163.032882 403.931359 
L 163.932302 417.223018 
L 164.831721 394.978865 
L 165.731141 395.426528 
L 166.630561 386.014518 
L 167.529981 417.886869 
L 168.4294 420.821462 
L 169.32882 383.285466 
L 170.22824 406.970439 
L 171.12766 413.316828 
L 172.027079 405.891979 
L 172.926499 418.841978 
L 173.825919 397.736855 
L 174.725338 407.220897 
L 175.624758 402.496247 
L 176.524178 388.600931 
L 177.423598 404.200444 
L 178.323017 403.127396 
L 179.222437 399.675357 
L 180.121857 404.976647 
L 181.021277 418.438208 
L 181.920696 399.375507 
L 182.820116 399.256671 
L 183.719536 394.929074 
L 184.618956 374.434628 
L 185.518375 415.049082 
L 186.417795 422.867411 
L 187.317215 395.658473 
L 188.216634 397.84969 
L 189.116054 406.002719 
L 190.015474 409.899263 
L 190.914894 418.964753 
L 191.814313 411.827872 
L 192.713733 413.11266 
L 193.613153 390.048106 
L 194.512573 398.176964 
L 195.411992 409.826299 
L 196.311412 391.053306 
L 197.210832 411.877777 
L 198.110251 406.574449 
L 199.009671 397.136603 
L 199.909091 383.326448 
L 200.808511 413.188094 
L 201.70793 407.262907 
L 202.60735 393.565613 
L 203.50677 395.913802 
L 204.40619 394.271592 
L 205.305609 409.255195 
L 206.205029 371.249276 
L 207.104449 418.001109 
L 208.003868 423.6293 
L 208.903288 371.398002 
L 209.802708 406.635543 
L 210.702128 414.423456 
L 211.601547 411.547942 
L 212.500967 407.144926 
L 213.400387 402.12621 
L 214.299807 414.19366 
L 215.199226 423.767425 
L 216.098646 404.831308 
L 216.998066 412.323176 
L 217.897485 411.01784 
L 218.796905 377.674147 
L 219.696325 402.629086 
L 220.595745 415.210523 
L 221.495164 397.209112 
L 222.394584 401.527804 
L 223.294004 382.037265 
L 224.193424 397.602246 
L 225.092843 408.564456 
L 225.992263 383.73037 
L 226.891683 410.665916 
L 227.791103 409.14728 
L 228.690522 395.289654 
L 229.589942 419.090229 
L 230.489362 410.657817 
L 231.388781 406.375115 
L 232.288201 390.965349 
L 233.187621 382.647087 
L 234.087041 393.184009 
L 234.98646 388.183862 
L 235.88588 411.015195 
L 236.7853 408.458424 
L 237.68472 398.874267 
L 238.584139 410.248619 
L 239.483559 414.352692 
L 240.382979 416.695659 
L 241.282398 405.803936 
L 242.181818 408.390311 
L 243.081238 395.277896 
L 243.980658 389.791198 
L 244.880077 407.757221 
L 245.779497 407.562985 
L 246.678917 417.849677 
L 247.578337 398.039596 
L 249.377176 401.895272 
L 250.276596 415.727555 
L 251.176015 414.039283 
L 252.075435 410.185547 
L 252.974855 388.56305 
L 253.874275 388.147123 
L 254.773694 418.346256 
L 255.673114 420.578196 
L 256.572534 392.235297 
L 257.471954 393.938808 
L 258.371373 412.652649 
L 259.270793 415.078483 
L 260.170213 402.702184 
L 261.069632 407.093689 
L 261.969052 403.902858 
L 262.868472 405.088254 
L 263.767892 408.374112 
L 264.667311 382.328858 
L 265.566731 403.006695 
L 266.466151 402.188977 
L 267.365571 392.420743 
L 268.26499 408.435365 
L 269.16441 415.316384 
L 270.06383 390.944249 
L 270.96325 392.804688 
L 271.862669 415.935129 
L 272.762089 406.516612 
L 273.661509 401.683418 
L 274.560928 381.052289 
L 275.460348 413.12828 
L 276.359768 395.873639 
L 277.259188 396.917291 
L 278.158607 399.249764 
L 279.058027 384.724707 
L 279.957447 415.037767 
L 280.856867 417.949843 
L 281.756286 395.406512 
L 282.655706 414.60835 
L 283.555126 411.743819 
L 284.454545 394.122657 
L 285.353965 411.769405 
L 286.253385 410.217416 
L 287.152805 398.55073 
L 288.052224 398.670518 
L 288.951644 401.88477 
L 289.851064 372.931422 
L 290.750484 423.457275 
L 291.649903 422.182483 
L 292.549323 396.031345 
L 293.448743 415.189728 
L 294.348162 413.020593 
L 295.247582 387.635019 
L 296.147002 386.574015 
L 297.046422 401.53922 
L 297.945841 413.878593 
L 298.845261 396.611086 
L 299.744681 405.500909 
L 300.644101 401.284233 
L 301.54352 395.881116 
L 302.44294 398.137409 
L 303.34236 399.537209 
L 304.241779 419.102862 
L 305.141199 416.491795 
L 306.040619 389.824398 
L 306.940039 406.175818 
L 307.839458 404.455772 
L 308.738878 421.65856 
L 309.638298 385.01649 
L 311.437137 398.639258 
L 312.336557 403.087232 
L 313.235977 409.454226 
L 314.135397 412.047527 
L 315.034816 412.551469 
L 315.934236 404.104096 
L 316.833656 382.651082 
L 317.733075 385.718454 
L 318.632495 412.640244 
L 319.531915 423.067919 
L 320.431335 398.852368 
L 321.330754 384.06597 
L 322.230174 415.202677 
L 323.129594 414.28409 
L 324.029014 387.762874 
L 324.928433 390.6647 
L 325.827853 412.517507 
L 326.727273 409.961935 
L 327.626692 406.243798 
L 328.526112 398.524664 
L 329.425532 408.428059 
L 330.324952 384.412414 
L 331.224371 387.057447 
L 332.123791 404.721033 
L 333.023211 415.625652 
L 333.922631 413.880448 
L 334.82205 386.856818 
L 335.72147 407.71759 
L 336.62089 402.846192 
L 337.520309 405.534509 
L 338.419729 389.401088 
L 339.319149 411.908213 
L 340.218569 413.974271 
L 341.117988 398.48138 
L 342.017408 399.08146 
L 342.916828 412.843289 
L 343.816248 417.965551 
L 344.715667 409.697683 
L 345.615087 405.198776 
L 346.514507 397.893591 
L 347.413926 413.772354 
L 348.313346 408.90818 
L 349.212766 397.489231 
L 350.112186 380.093398 
L 351.011605 422.377541 
L 351.911025 417.307584 
L 352.810445 415.413816 
L 353.709865 413.907153 
L 354.609284 399.215004 
L 355.508704 410.760418 
L 356.408124 418.584042 
L 357.307544 395.232424 
L 358.206963 390.731044 
L 359.106383 393.336274 
L 360.005803 407.399266 
L 360.905222 392.652118 
L 361.804642 408.533558 
L 362.704062 411.03483 
L 363.603482 390.77625 
L 364.502901 417.750913 
L 365.402321 399.680703 
L 366.301741 392.05415 
L 367.201161 401.185336 
L 368.10058 392.703336 
L 369 411.684359 
L 369.89942 410.071439 
L 370.798839 375.702387 
L 371.698259 412.263225 
L 372.597679 388.699448 
L 373.497099 360.858112 
L 374.396518 406.274316 
L 375.295938 413.021639 
L 376.195358 408.6501 
L 377.094778 380.123649 
L 377.994197 389.688743 
L 378.893617 391.293529 
L 379.793037 409.827421 
L 380.692456 397.283389 
L 381.591876 392.798923 
L 382.491296 398.416425 
L 383.390716 394.405421 
L 384.290135 422.543016 
L 385.189555 403.991464 
L 386.088975 392.753317 
L 386.988395 372.377499 
L 387.887814 405.386981 
L 388.787234 403.795703 
L 389.686654 403.869372 
L 390.586074 408.192403 
L 391.485493 396.588312 
L 392.384913 390.666888 
L 393.284333 396.615786 
L 394.183752 396.54421 
L 395.083172 401.148616 
L 395.982592 398.240644 
L 396.882012 400.983642 
L 397.781431 418.679334 
L 398.680851 398.772307 
L 399.580271 395.225917 
L 400.479691 394.231504 
L 401.37911 381.652921 
L 402.27853 416.399968 
L 403.17795 422.098942 
L 404.077369 423.43224 
L 404.976789 422.732694 
L 405.876209 408.534757 
L 406.775629 419.273973 
L 407.675048 398.544851 
L 408.574468 398.44974 
L 409.473888 406.858513 
L 410.373308 397.670226 
L 411.272727 413.842168 
L 412.172147 421.474411 
L 413.970986 376.862954 
L 414.870406 399.254178 
L 415.769826 398.577747 
L 416.669246 395.052571 
L 417.568665 420.763604 
L 418.468085 411.977597 
L 419.367505 407.687719 
L 420.266925 410.025215 
L 421.166344 388.126213 
L 422.065764 394.184834 
L 422.965184 412.320759 
L 423.864603 405.291636 
L 425.663443 419.966719 
L 426.562863 412.280443 
L 427.462282 395.911824 
L 428.361702 391.685769 
L 429.261122 403.905826 
L 430.160542 394.378442 
L 431.059961 402.700053 
L 431.959381 387.782033 
L 432.858801 378.088172 
L 433.758221 410.945522 
L 434.65764 403.408334 
L 435.55706 405.031689 
L 436.45648 400.520834 
L 437.355899 414.835274 
L 438.255319 402.34031 
L 439.154739 395.828033 
L 440.054159 404.18802 
L 440.953578 402.187744 
L 441.852998 383.422187 
L 443.651838 417.126727 
L 444.551257 418.162913 
L 445.450677 407.157522 
L 446.350097 403.170966 
L 447.249516 402.22661 
L 448.148936 395.026163 
L 449.048356 421.414693 
L 449.947776 418.676941 
L 450.847195 399.132945 
L 452.646035 413.999918 
L 453.545455 396.050219 
L 454.444874 367.175067 
L 455.344294 410.572768 
L 456.243714 414.199468 
L 457.143133 355.637834 
L 458.042553 398.299663 
L 458.941973 418.077648 
L 459.841393 396.486656 
L 460.740812 390.399725 
L 461.640232 409.093874 
L 462.539652 405.647909 
L 463.439072 392.523512 
L 464.338491 400.761266 
L 465.237911 404.049796 
L 466.137331 406.786648 
L 467.03675 408.388922 
L 467.93617 409.27873 
L 468.83559 404.68418 
L 469.73501 402.871725 
L 470.634429 409.73602 
L 471.533849 415.327952 
L 472.433269 412.400022 
L 473.332689 417.655749 
L 474.232108 390.760782 
L 475.131528 377.767051 
L 476.030948 395.016118 
L 476.930368 418.823294 
L 477.829787 405.054407 
L 478.729207 409.739898 
L 479.628627 418.836384 
L 480.528046 392.764391 
L 481.427466 385.7703 
L 482.326886 397.62795 
L 483.226306 413.370348 
L 484.125725 406.735023 
L 485.025145 392.903299 
L 485.924565 417.526844 
L 486.823985 410.730433 
L 487.723404 397.444159 
L 488.622824 401.741086 
L 489.522244 392.113302 
L 490.421663 401.898393 
L 491.321083 402.177847 
L 492.220503 406.424183 
L 493.119923 404.347819 
L 494.019342 403.717811 
L 494.918762 406.424069 
L 495.818182 403.411588 
L 496.717602 398.410204 
L 497.617021 419.808759 
L 498.516441 417.707901 
L 499.415861 387.396928 
L 500.31528 405.216108 
L 501.2147 404.744016 
L 502.11412 393.315212 
L 503.01354 397.612691 
L 504.812379 417.037419 
L 505.711799 392.597894 
L 506.611219 388.725304 
L 507.510638 402.81927 
L 508.410058 401.003931 
L 509.309478 419.153687 
L 510.208897 380.554817 
L 511.108317 412.016895 
L 512.007737 383.067257 
L 512.907157 393.145805 
L 513.806576 405.662611 
L 514.705996 410.964453 
L 515.605416 407.553148 
L 516.504836 405.216736 
L 517.404255 387.446205 
L 518.303675 405.791198 
L 520.102515 421.803774 
L 521.001934 414.535119 
L 521.901354 418.75482 
L 522.800774 416.921984 
L 523.700193 393.50376 
L 524.599613 410.682716 
L 526.398453 404.987207 
L 527.297872 414.722012 
L 528.197292 417.034535 
L 529.096712 395.413913 
L 529.996132 395.400785 
L 531.794971 415.589331 
L 532.694391 397.923271 
L 533.59381 418.546755 
L 534.49323 420.0151 
L 535.39265 394.639726 
L 536.29207 404.99495 
L 537.191489 401.320896 
L 538.090909 390.511731 
L 538.990329 398.88026 
L 539.889749 403.296119 
L 540.789168 416.002956 
L 541.688588 386.006755 
L 542.588008 399.983388 
L 543.487427 403.253558 
L 544.386847 409.916463 
L 545.286267 406.948255 
L 546.185687 393.651307 
L 547.085106 412.172261 
L 547.984526 406.904285 
L 548.883946 407.667418 
L 549.783366 404.469319 
L 550.682785 391.828368 
L 551.582205 413.844647 
L 552.481625 414.052999 
L 553.381044 378.393691 
L 554.280464 394.864195 
L 555.179884 408.839515 
L 556.079304 412.387484 
L 556.978723 398.660529 
L 557.878143 400.054164 
L 558.777563 412.677872 
L 559.676983 383.102455 
L 560.576402 399.078758 
L 561.475822 400.854569 
L 562.375242 391.833239 
L 563.274662 409.90676 
L 564.174081 405.131462 
L 565.073501 404.196163 
L 565.972921 404.970635 
L 566.87234 390.52113 
L 568.67118 411.945662 
L 569.5706 414.011474 
L 570.470019 406.353186 
L 571.369439 418.858778 
L 572.268859 413.569322 
L 573.168279 405.85211 
L 574.067698 388.4937 
L 575.866538 412.514484 
L 576.765957 417.819502 
L 577.665377 418.015547 
L 578.564797 416.91375 
L 579.464217 404.212449 
L 580.363636 408.285877 
L 581.263056 394.31714 
L 582.162476 411.768606 
L 583.061896 408.999181 
L 583.961315 417.148835 
L 584.860735 415.546182 
L 585.760155 377.887371 
L 586.659574 413.558286 
L 587.558994 403.814501 
L 588.458414 414.157301 
L 589.357834 403.918459 
L 590.257253 400.173438 
L 591.156673 401.941867 
L 592.056093 393.251057 
L 592.955513 409.911847 
L 593.854932 430.355052 
L 594.754352 409.899663 
L 595.653772 401.558874 
L 596.553191 399.597997 
L 597.452611 417.746071 
L 598.352031 425.813896 
L 599.251451 404.019773 
L 600.15087 412.023021 
L 601.05029 429.373434 
L 601.94971 430.934732 
L 602.84913 420.95453 
L 603.748549 421.072742 
L 604.647969 426.135471 
L 605.547389 426.503756 
L 606.446809 425.707548 
L 607.346228 428.24254 
L 608.245648 432.088629 
L 609.145068 420.263391 
L 610.044487 431.039225 
L 610.943907 435.518273 
L 611.843327 431.828505 
L 612.742747 435.606376 
L 613.642166 433.485628 
L 614.541586 436.352123 
L 615.441006 430.121772 
L 617.239845 436.097392 
L 618.139265 435.194549 
L 619.038685 429.106644 
L 619.938104 435.847506 
L 620.837524 436.800197 
L 621.736944 436.160141 
L 622.636364 433.404459 
L 622.636364 433.404459 
" style="fill:none;stroke:#808080;stroke-linecap:square;stroke-width:1.5;"/>
   </g>
   <g id="patch_3">
    <path d="M 90 441 
L 90 60.48 
" style="fill:none;stroke:#000000;stroke-linecap:square;stroke-linejoin:miter;stroke-width:0.8;"/>
   </g>
   <g id="patch_4">
    <path d="M 648 441 
L 648 60.48 
" style="fill:none;stroke:#000000;stroke-linecap:square;stroke-linejoin:miter;stroke-width:0.8;"/>
   </g>
   <g id="patch_5">
    <path d="M 90 441 
L 648 441 
" style="fill:none;stroke:#000000;stroke-linecap:square;stroke-linejoin:miter;stroke-width:0.8;"/>
   </g>
   <g id="patch_6">
    <path d="M 90 60.48 
L 648 60.48 
" style="fill:none;stroke:#000000;stroke-linecap:square;stroke-linejoin:miter;stroke-width:0.8;"/>
   </g>
  </g>
 </g>
 <defs>
  <clipPath id="p710bdb9632">
   <rect height="380.52" width="558" x="90" y="60.48"/>
  </clipPath>
 </defs>
</svg>
